<?xml version="1.0" encoding="UTF-8" standalone="no"?>
<!DOCTYPE svg PUBLIC "-//W3C//DTD SVG 1.1//EN"
 "http://www.w3.org/Graphics/SVG/1.1/DTD/svg11.dtd">
<!-- Generated by graphviz version 12.2.1 (20241206.2353)
 -->
<!-- Title: model_graph Pages: 1 -->
<svg width="242pt" height="177pt"
 viewBox="0.00 0.00 241.50 177.00" xmlns="http://www.w3.org/2000/svg" xmlns:xlink="http://www.w3.org/1999/xlink">
<g id="graph0" class="graph" transform="scale(1 1) rotate(0) translate(4 173)">
<title>model_graph</title>
<polygon fill="white" stroke="none" points="-4,4 -4,-173 237.5,-173 237.5,4 -4,4"/>
<g id="clust1" class="cluster">
<title>cluster_allowipaddress</title>
<path fill="none" stroke="#698b22" d="M20,-8C20,-8 213.5,-8 213.5,-8 219.5,-8 225.5,-14 225.5,-20 225.5,-20 225.5,-149 225.5,-149 225.5,-155 219.5,-161 213.5,-161 213.5,-161 20,-161 20,-161 14,-161 8,-155 8,-149 8,-149 8,-20 8,-20 8,-14 14,-8 20,-8"/>
<text text-anchor="start" x="29" y="-144.5" font-family="Roboto" font-size="8.00"> &#160;&#160;&#160;&#160;&#160;&#160;&#160;&#160;&#160;</text>
<text text-anchor="start" x="51.5" y="-144.5" font-family="Roboto" font-size="10.00"> &#160;&#160;&#160;&#160;&#160;&#160;&#160;&#160;&#160;</text>
<text text-anchor="start" x="81.5" y="-144.5" font-family="Roboto" font-weight="bold" font-size="10.00">allowipaddress</text>
<text text-anchor="start" x="152" y="-144.5" font-family="Roboto" font-size="10.00"> &#160;&#160;&#160;&#160;&#160;&#160;&#160;&#160;&#160;</text>
<text text-anchor="start" x="182" y="-144.5" font-family="Roboto" font-size="8.00"> &#160;&#160;&#160;&#160;&#160;&#160;&#160;&#160;&#160;</text>
</g>
<!-- allowipaddress_models_AllowIpAddress -->
<g id="node1" class="node">
<title>allowipaddress_models_AllowIpAddress</title>
<polygon fill="white" stroke="none" points="24,-20.38 24,-121.62 209.5,-121.62 209.5,-20.38 24,-20.38"/>
<polygon fill="#1b563f" stroke="none" points="25,-99.38 25,-120.62 208.5,-120.62 208.5,-99.38 25,-99.38"/>
<text text-anchor="start" x="46.25" y="-107.12" font-family="Roboto" font-size="8.00"> &#160;&#160;&#160;&#160;&#160;</text>
<text text-anchor="start" x="59.75" y="-107.12" font-family="Roboto" font-weight="bold" font-size="10.00" fill="white"> &#160;&#160;&#160;&#160;&#160;Allowed IP Address &#160;&#160;&#160;&#160;&#160;</text>
<text text-anchor="start" x="27" y="-90.78" font-family="Roboto" font-size="8.00"> &#160;&#160;&#160;&#160;&#160;</text>
<text text-anchor="start" x="40.5" y="-90.78" font-family="Roboto" font-weight="bold" font-size="8.00">ID</text>
<text text-anchor="start" x="48.75" y="-90.78" font-family="Roboto" font-size="8.00"> &#160;&#160;&#160;&#160;&#160;</text>
<text text-anchor="start" x="97.75" y="-90.78" font-family="Roboto" font-size="8.00"> &#160;&#160;&#160;&#160;&#160;</text>
<text text-anchor="start" x="111.25" y="-90.78" font-family="Roboto" font-weight="bold" font-size="8.00">BigAutoField</text>
<text text-anchor="start" x="163.75" y="-90.78" font-family="Roboto" font-size="8.00"> &#160;&#160;&#160;&#160;&#160;</text>
<text text-anchor="start" x="27" y="-77.78" font-family="Roboto" font-size="8.00"> &#160;&#160;&#160;&#160;&#160;</text>
<text text-anchor="start" x="40.5" y="-77.78" font-family="Roboto" font-size="8.00" fill="#7b7b7b">Created at</text>
<text text-anchor="start" x="78.75" y="-77.78" font-family="Roboto" font-size="8.00"> &#160;&#160;&#160;&#160;&#160;</text>
<text text-anchor="start" x="97.75" y="-77.78" font-family="Roboto" font-size="8.00"> &#160;&#160;&#160;&#160;&#160;</text>
<text text-anchor="start" x="111.25" y="-77.78" font-family="Roboto" font-size="8.00" fill="#7b7b7b">DateTimeField</text>
<text text-anchor="start" x="163" y="-77.78" font-family="Roboto" font-size="8.00"> &#160;&#160;&#160;&#160;&#160;</text>
<text text-anchor="start" x="27" y="-64.78" font-family="Roboto" font-size="8.00"> &#160;&#160;&#160;&#160;&#160;</text>
<text text-anchor="start" x="40.5" y="-64.78" font-family="Roboto" font-size="8.00" fill="#7b7b7b">Description</text>
<text text-anchor="start" x="80.25" y="-64.78" font-family="Roboto" font-size="8.00"> &#160;&#160;&#160;&#160;&#160;</text>
<text text-anchor="start" x="97.75" y="-64.78" font-family="Roboto" font-size="8.00"> &#160;&#160;&#160;&#160;&#160;</text>
<text text-anchor="start" x="111.25" y="-64.78" font-family="Roboto" font-size="8.00" fill="#7b7b7b">CharField</text>
<text text-anchor="start" x="146.5" y="-64.78" font-family="Roboto" font-size="8.00"> &#160;&#160;&#160;&#160;&#160;</text>
<text text-anchor="start" x="27" y="-51.77" font-family="Roboto" font-size="8.00"> &#160;&#160;&#160;&#160;&#160;</text>
<text text-anchor="start" x="40.5" y="-51.77" font-family="Roboto" font-size="8.00">Ip address</text>
<text text-anchor="start" x="78" y="-51.77" font-family="Roboto" font-size="8.00"> &#160;&#160;&#160;&#160;&#160;</text>
<text text-anchor="start" x="97.75" y="-51.77" font-family="Roboto" font-size="8.00"> &#160;&#160;&#160;&#160;&#160;</text>
<text text-anchor="start" x="111.25" y="-51.77" font-family="Roboto" font-size="8.00">GenericIPAddressField</text>
<text text-anchor="start" x="193" y="-51.77" font-family="Roboto" font-size="8.00"> &#160;&#160;&#160;&#160;&#160;</text>
<text text-anchor="start" x="27" y="-38.77" font-family="Roboto" font-size="8.00"> &#160;&#160;&#160;&#160;&#160;</text>
<text text-anchor="start" x="40.5" y="-38.77" font-family="Roboto" font-size="8.00">Is active</text>
<text text-anchor="start" x="69" y="-38.77" font-family="Roboto" font-size="8.00"> &#160;&#160;&#160;&#160;&#160;</text>
<text text-anchor="start" x="97.75" y="-38.77" font-family="Roboto" font-size="8.00"> &#160;&#160;&#160;&#160;&#160;</text>
<text text-anchor="start" x="111.25" y="-38.77" font-family="Roboto" font-size="8.00">BooleanField</text>
<text text-anchor="start" x="157.75" y="-38.77" font-family="Roboto" font-size="8.00"> &#160;&#160;&#160;&#160;&#160;</text>
<text text-anchor="start" x="27" y="-25.77" font-family="Roboto" font-size="8.00"> &#160;&#160;&#160;&#160;&#160;</text>
<text text-anchor="start" x="40.5" y="-25.77" font-family="Roboto" font-size="8.00" fill="#7b7b7b">Updated at</text>
<text text-anchor="start" x="80.25" y="-25.77" font-family="Roboto" font-size="8.00"> &#160;&#160;&#160;&#160;&#160;</text>
<text text-anchor="start" x="97.75" y="-25.77" font-family="Roboto" font-size="8.00"> &#160;&#160;&#160;&#160;&#160;</text>
<text text-anchor="start" x="111.25" y="-25.77" font-family="Roboto" font-size="8.00" fill="#7b7b7b">DateTimeField</text>
<text text-anchor="start" x="163" y="-25.77" font-family="Roboto" font-size="8.00"> &#160;&#160;&#160;&#160;&#160;</text>
<polygon fill="none" stroke="black" points="24,-20.38 24,-121.62 209.5,-121.62 209.5,-20.38 24,-20.38"/>
</g>
</g>
</svg>
