<?xml version="1.0" encoding="UTF-8" standalone="no"?>
<!DOCTYPE svg PUBLIC "-//W3C//DTD SVG 1.1//EN"
 "http://www.w3.org/Graphics/SVG/1.1/DTD/svg11.dtd">
<!-- Generated by graphviz version 12.2.1 (20241206.2353)
 -->
<!-- Title: model_graph Pages: 1 -->
<svg width="542pt" height="235pt"
 viewBox="0.00 0.00 542.00 235.00" xmlns="http://www.w3.org/2000/svg" xmlns:xlink="http://www.w3.org/1999/xlink">
<g id="graph0" class="graph" transform="scale(1 1) rotate(0) translate(4 231)">
<title>model_graph</title>
<polygon fill="white" stroke="none" points="-4,4 -4,-231 538,-231 538,4 -4,4"/>
<g id="clust1" class="cluster">
<title>cluster_department</title>
<path fill="none" stroke="#698b22" d="M20,-44C20,-44 514,-44 514,-44 520,-44 526,-50 526,-56 526,-56 526,-171 526,-171 526,-177 520,-183 514,-183 514,-183 20,-183 20,-183 14,-183 8,-177 8,-171 8,-171 8,-56 8,-56 8,-50 14,-44 20,-44"/>
<text text-anchor="start" x="188.25" y="-166.5" font-family="Roboto" font-size="8.00"> &#160;&#160;&#160;&#160;&#160;&#160;&#160;&#160;&#160;</text>
<text text-anchor="start" x="210.75" y="-166.5" font-family="Roboto" font-size="10.00"> &#160;&#160;&#160;&#160;&#160;&#160;&#160;&#160;&#160;</text>
<text text-anchor="start" x="240.75" y="-166.5" font-family="Roboto" font-weight="bold" font-size="10.00">department</text>
<text text-anchor="start" x="293.25" y="-166.5" font-family="Roboto" font-size="10.00"> &#160;&#160;&#160;&#160;&#160;&#160;&#160;&#160;&#160;</text>
<text text-anchor="start" x="323.25" y="-166.5" font-family="Roboto" font-size="8.00"> &#160;&#160;&#160;&#160;&#160;&#160;&#160;&#160;&#160;</text>
</g>
<!-- department_models_Department -->
<g id="node1" class="node">
<title>department_models_Department</title>
<polygon fill="white" stroke="none" points="353.75,-62.38 353.75,-137.62 510,-137.62 510,-62.38 353.75,-62.38"/>
<polygon fill="#1b563f" stroke="none" points="354.75,-115.38 354.75,-136.62 509,-136.62 509,-115.38 354.75,-115.38"/>
<text text-anchor="start" x="380.88" y="-123.12" font-family="Roboto" font-size="8.00"> &#160;&#160;&#160;&#160;&#160;</text>
<text text-anchor="start" x="394.38" y="-123.12" font-family="Roboto" font-weight="bold" font-size="10.00" fill="white"> &#160;&#160;&#160;&#160;&#160;department &#160;&#160;&#160;&#160;&#160;</text>
<text text-anchor="start" x="356.75" y="-106.78" font-family="Roboto" font-size="8.00"> &#160;&#160;&#160;&#160;&#160;</text>
<text text-anchor="start" x="370.25" y="-106.78" font-family="Roboto" font-weight="bold" font-size="8.00">ID</text>
<text text-anchor="start" x="378.5" y="-106.78" font-family="Roboto" font-size="8.00"> &#160;&#160;&#160;&#160;&#160;</text>
<text text-anchor="start" x="427.5" y="-106.78" font-family="Roboto" font-size="8.00"> &#160;&#160;&#160;&#160;&#160;</text>
<text text-anchor="start" x="441" y="-106.78" font-family="Roboto" font-weight="bold" font-size="8.00">BigAutoField</text>
<text text-anchor="start" x="493.5" y="-106.78" font-family="Roboto" font-size="8.00"> &#160;&#160;&#160;&#160;&#160;</text>
<text text-anchor="start" x="356.75" y="-93.78" font-family="Roboto" font-size="8.00"> &#160;&#160;&#160;&#160;&#160;</text>
<text text-anchor="start" x="370.25" y="-93.78" font-family="Roboto" font-size="8.00" fill="#7b7b7b">Created at</text>
<text text-anchor="start" x="408.5" y="-93.78" font-family="Roboto" font-size="8.00"> &#160;&#160;&#160;&#160;&#160;</text>
<text text-anchor="start" x="427.5" y="-93.78" font-family="Roboto" font-size="8.00"> &#160;&#160;&#160;&#160;&#160;</text>
<text text-anchor="start" x="441" y="-93.78" font-family="Roboto" font-size="8.00" fill="#7b7b7b">DateTimeField</text>
<text text-anchor="start" x="492.75" y="-93.78" font-family="Roboto" font-size="8.00"> &#160;&#160;&#160;&#160;&#160;</text>
<text text-anchor="start" x="356.75" y="-80.78" font-family="Roboto" font-size="8.00"> &#160;&#160;&#160;&#160;&#160;</text>
<text text-anchor="start" x="370.25" y="-80.78" font-family="Roboto" font-size="8.00">Name</text>
<text text-anchor="start" x="392" y="-80.78" font-family="Roboto" font-size="8.00"> &#160;&#160;&#160;&#160;&#160;</text>
<text text-anchor="start" x="427.5" y="-80.78" font-family="Roboto" font-size="8.00"> &#160;&#160;&#160;&#160;&#160;</text>
<text text-anchor="start" x="441" y="-80.78" font-family="Roboto" font-size="8.00">CharField</text>
<text text-anchor="start" x="476.25" y="-80.78" font-family="Roboto" font-size="8.00"> &#160;&#160;&#160;&#160;&#160;</text>
<text text-anchor="start" x="356.75" y="-67.78" font-family="Roboto" font-size="8.00"> &#160;&#160;&#160;&#160;&#160;</text>
<text text-anchor="start" x="370.25" y="-67.78" font-family="Roboto" font-size="8.00" fill="#7b7b7b">Updated at</text>
<text text-anchor="start" x="410" y="-67.78" font-family="Roboto" font-size="8.00"> &#160;&#160;&#160;&#160;&#160;</text>
<text text-anchor="start" x="427.5" y="-67.78" font-family="Roboto" font-size="8.00"> &#160;&#160;&#160;&#160;&#160;</text>
<text text-anchor="start" x="441" y="-67.78" font-family="Roboto" font-size="8.00" fill="#7b7b7b">DateTimeField</text>
<text text-anchor="start" x="492.75" y="-67.78" font-family="Roboto" font-size="8.00"> &#160;&#160;&#160;&#160;&#160;</text>
<polygon fill="none" stroke="black" points="353.75,-62.38 353.75,-137.62 510,-137.62 510,-62.38 353.75,-62.38"/>
</g>
<!-- department_models_UserProfile -->
<g id="node2" class="node">
<title>department_models_UserProfile</title>
<polygon fill="white" stroke="none" points="24,-55.88 24,-144.12 209.5,-144.12 209.5,-55.88 24,-55.88"/>
<polygon fill="#1b563f" stroke="none" points="25,-121.88 25,-143.12 208.5,-143.12 208.5,-121.88 25,-121.88"/>
<text text-anchor="start" x="65.38" y="-129.62" font-family="Roboto" font-size="8.00"> &#160;&#160;&#160;&#160;&#160;</text>
<text text-anchor="start" x="78.88" y="-129.62" font-family="Roboto" font-weight="bold" font-size="10.00" fill="white"> &#160;&#160;&#160;&#160;&#160;user profile &#160;&#160;&#160;&#160;&#160;</text>
<text text-anchor="start" x="27" y="-113.28" font-family="Roboto" font-size="8.00"> &#160;&#160;&#160;&#160;&#160;</text>
<text text-anchor="start" x="40.5" y="-113.28" font-family="Roboto" font-weight="bold" font-size="8.00">ID</text>
<text text-anchor="start" x="48.75" y="-113.28" font-family="Roboto" font-size="8.00"> &#160;&#160;&#160;&#160;&#160;</text>
<text text-anchor="start" x="103.75" y="-113.28" font-family="Roboto" font-size="8.00"> &#160;&#160;&#160;&#160;&#160;</text>
<text text-anchor="start" x="117.25" y="-113.28" font-family="Roboto" font-weight="bold" font-size="8.00">BigAutoField</text>
<text text-anchor="start" x="169.75" y="-113.28" font-family="Roboto" font-size="8.00"> &#160;&#160;&#160;&#160;&#160;</text>
<text text-anchor="start" x="27" y="-100.28" font-family="Roboto" font-size="8.00"> &#160;&#160;&#160;&#160;&#160;</text>
<text text-anchor="start" x="40.5" y="-100.28" font-family="Roboto" font-weight="bold" font-size="8.00" fill="#7b7b7b">Department</text>
<text text-anchor="start" x="86.25" y="-100.28" font-family="Roboto" font-size="8.00"> &#160;&#160;&#160;&#160;&#160;</text>
<text text-anchor="start" x="103.75" y="-100.28" font-family="Roboto" font-size="8.00"> &#160;&#160;&#160;&#160;&#160;</text>
<text text-anchor="start" x="117.25" y="-100.28" font-family="Roboto" font-weight="bold" font-size="8.00" fill="#7b7b7b">ForeignKey (id)</text>
<text text-anchor="start" x="178.75" y="-100.28" font-family="Roboto" font-size="8.00"> &#160;&#160;&#160;&#160;&#160;</text>
<text text-anchor="start" x="27" y="-87.28" font-family="Roboto" font-size="8.00"> &#160;&#160;&#160;&#160;&#160;</text>
<text text-anchor="start" x="40.5" y="-87.28" font-family="Roboto" font-weight="bold" font-size="8.00">User</text>
<text text-anchor="start" x="58.5" y="-87.28" font-family="Roboto" font-size="8.00"> &#160;&#160;&#160;&#160;&#160;</text>
<text text-anchor="start" x="103.75" y="-87.28" font-family="Roboto" font-size="8.00"> &#160;&#160;&#160;&#160;&#160;</text>
<text text-anchor="start" x="117.25" y="-87.28" font-family="Roboto" font-weight="bold" font-size="8.00">OneToOneField (id)</text>
<text text-anchor="start" x="193" y="-87.28" font-family="Roboto" font-size="8.00"> &#160;&#160;&#160;&#160;&#160;</text>
<text text-anchor="start" x="27" y="-74.28" font-family="Roboto" font-size="8.00"> &#160;&#160;&#160;&#160;&#160;</text>
<text text-anchor="start" x="40.5" y="-74.28" font-family="Roboto" font-size="8.00">Is manager</text>
<text text-anchor="start" x="81" y="-74.28" font-family="Roboto" font-size="8.00"> &#160;&#160;&#160;&#160;&#160;</text>
<text text-anchor="start" x="103.75" y="-74.28" font-family="Roboto" font-size="8.00"> &#160;&#160;&#160;&#160;&#160;</text>
<text text-anchor="start" x="117.25" y="-74.28" font-family="Roboto" font-size="8.00">BooleanField</text>
<text text-anchor="start" x="163.75" y="-74.28" font-family="Roboto" font-size="8.00"> &#160;&#160;&#160;&#160;&#160;</text>
<text text-anchor="start" x="27" y="-61.27" font-family="Roboto" font-size="8.00"> &#160;&#160;&#160;&#160;&#160;</text>
<text text-anchor="start" x="40.5" y="-61.27" font-family="Roboto" font-size="8.00">Is time off</text>
<text text-anchor="start" x="75" y="-61.27" font-family="Roboto" font-size="8.00"> &#160;&#160;&#160;&#160;&#160;</text>
<text text-anchor="start" x="103.75" y="-61.27" font-family="Roboto" font-size="8.00"> &#160;&#160;&#160;&#160;&#160;</text>
<text text-anchor="start" x="117.25" y="-61.27" font-family="Roboto" font-size="8.00">BooleanField</text>
<text text-anchor="start" x="163.75" y="-61.27" font-family="Roboto" font-size="8.00"> &#160;&#160;&#160;&#160;&#160;</text>
<polygon fill="none" stroke="black" points="24,-55.88 24,-144.12 209.5,-144.12 209.5,-55.88 24,-55.88"/>
</g>
<!-- department_models_UserProfile&#45;&gt;department_models_Department -->
<g id="edge2" class="edge">
<title>department_models_UserProfile&#45;&gt;department_models_Department</title>
<path fill="none" stroke="black" d="M226.07,-100C265.27,-100 308.94,-100 345.85,-100"/>
<ellipse fill="black" stroke="black" cx="221.75" cy="-100" rx="4" ry="4"/>
<text text-anchor="middle" x="281.62" y="-101.4" font-family="Roboto" font-size="8.00"> Department (Userprofile)</text>
</g>
<!-- django_contrib_auth_models_User -->
<g id="node3" class="node">
<title>django_contrib_auth_models_User</title>
<polygon fill="white" stroke="none" points="410.62,-7.62 410.62,-28.38 453.12,-28.38 453.12,-7.62 410.62,-7.62"/>
<polygon fill="#1b563f" stroke="none" points="410.62,-7.62 410.62,-28.38 453.12,-28.38 453.12,-7.62 410.62,-7.62"/>
<text text-anchor="start" x="414.62" y="-13.97" font-family="Roboto" font-size="8.00"> &#160;</text>
<text text-anchor="start" x="419.12" y="-13.97" font-family="Roboto" font-size="12.00" fill="white">User</text>
<text text-anchor="start" x="444.62" y="-13.97" font-family="Roboto" font-size="8.00"> &#160;</text>
</g>
<!-- department_models_UserProfile&#45;&gt;django_contrib_auth_models_User -->
<g id="edge1" class="edge">
<title>department_models_UserProfile&#45;&gt;django_contrib_auth_models_User</title>
<path fill="none" stroke="black" d="M217.33,-73.69C257.24,-63.18 303.67,-50.97 345.75,-40 364.8,-35.03 386.27,-29.48 402.88,-25.2"/>
<text text-anchor="middle" x="281.62" y="-69.24" font-family="Roboto" font-size="8.00"> User (Userprofile)</text>
</g>
<!-- \n\n\n -->
<g id="node4" class="node">
<title>\n\n\n</title>
</g>
</g>
</svg>
