<?xml version="1.0" encoding="UTF-8" standalone="no"?>
<!DOCTYPE svg PUBLIC "-//W3C//DTD SVG 1.1//EN"
 "http://www.w3.org/Graphics/SVG/1.1/DTD/svg11.dtd">
<!-- Generated by graphviz version 12.2.1 (20241206.2353)
 -->
<!-- Title: model_graph Pages: 1 -->
<svg width="587pt" height="235pt"
 viewBox="0.00 0.00 587.00 235.00" xmlns="http://www.w3.org/2000/svg" xmlns:xlink="http://www.w3.org/1999/xlink">
<g id="graph0" class="graph" transform="scale(1 1) rotate(0) translate(4 231)">
<title>model_graph</title>
<polygon fill="white" stroke="none" points="-4,4 -4,-231 583,-231 583,4 -4,4"/>
<g id="clust1" class="cluster">
<title>cluster_leavetype</title>
<path fill="none" stroke="#698b22" d="M20,-44C20,-44 559,-44 559,-44 565,-44 571,-50 571,-56 571,-56 571,-171 571,-171 571,-177 565,-183 559,-183 559,-183 20,-183 20,-183 14,-183 8,-177 8,-171 8,-171 8,-56 8,-56 8,-50 14,-44 20,-44"/>
<text text-anchor="start" x="215.25" y="-166.5" font-family="Roboto" font-size="8.00"> &#160;&#160;&#160;&#160;&#160;&#160;&#160;&#160;&#160;</text>
<text text-anchor="start" x="237.75" y="-166.5" font-family="Roboto" font-size="10.00"> &#160;&#160;&#160;&#160;&#160;&#160;&#160;&#160;&#160;</text>
<text text-anchor="start" x="267.75" y="-166.5" font-family="Roboto" font-weight="bold" font-size="10.00">leavetype</text>
<text text-anchor="start" x="311.25" y="-166.5" font-family="Roboto" font-size="10.00"> &#160;&#160;&#160;&#160;&#160;&#160;&#160;&#160;&#160;</text>
<text text-anchor="start" x="341.25" y="-166.5" font-family="Roboto" font-size="8.00"> &#160;&#160;&#160;&#160;&#160;&#160;&#160;&#160;&#160;</text>
</g>
<!-- leavetype_models_LeaveType -->
<g id="node1" class="node">
<title>leavetype_models_LeaveType</title>
<polygon fill="white" stroke="none" points="398.75,-62.38 398.75,-137.62 555,-137.62 555,-62.38 398.75,-62.38"/>
<polygon fill="#1b563f" stroke="none" points="399.75,-115.38 399.75,-136.62 554,-136.62 554,-115.38 399.75,-115.38"/>
<text text-anchor="start" x="428.88" y="-123.12" font-family="Roboto" font-size="8.00"> &#160;&#160;&#160;&#160;&#160;</text>
<text text-anchor="start" x="442.38" y="-123.12" font-family="Roboto" font-weight="bold" font-size="10.00" fill="white"> &#160;&#160;&#160;&#160;&#160;leave type &#160;&#160;&#160;&#160;&#160;</text>
<text text-anchor="start" x="401.75" y="-106.78" font-family="Roboto" font-size="8.00"> &#160;&#160;&#160;&#160;&#160;</text>
<text text-anchor="start" x="415.25" y="-106.78" font-family="Roboto" font-weight="bold" font-size="8.00">ID</text>
<text text-anchor="start" x="423.5" y="-106.78" font-family="Roboto" font-size="8.00"> &#160;&#160;&#160;&#160;&#160;</text>
<text text-anchor="start" x="472.5" y="-106.78" font-family="Roboto" font-size="8.00"> &#160;&#160;&#160;&#160;&#160;</text>
<text text-anchor="start" x="486" y="-106.78" font-family="Roboto" font-weight="bold" font-size="8.00">BigAutoField</text>
<text text-anchor="start" x="538.5" y="-106.78" font-family="Roboto" font-size="8.00"> &#160;&#160;&#160;&#160;&#160;</text>
<text text-anchor="start" x="401.75" y="-93.78" font-family="Roboto" font-size="8.00"> &#160;&#160;&#160;&#160;&#160;</text>
<text text-anchor="start" x="415.25" y="-93.78" font-family="Roboto" font-size="8.00" fill="#7b7b7b">Created at</text>
<text text-anchor="start" x="453.5" y="-93.78" font-family="Roboto" font-size="8.00"> &#160;&#160;&#160;&#160;&#160;</text>
<text text-anchor="start" x="472.5" y="-93.78" font-family="Roboto" font-size="8.00"> &#160;&#160;&#160;&#160;&#160;</text>
<text text-anchor="start" x="486" y="-93.78" font-family="Roboto" font-size="8.00" fill="#7b7b7b">DateTimeField</text>
<text text-anchor="start" x="537.75" y="-93.78" font-family="Roboto" font-size="8.00"> &#160;&#160;&#160;&#160;&#160;</text>
<text text-anchor="start" x="401.75" y="-80.78" font-family="Roboto" font-size="8.00"> &#160;&#160;&#160;&#160;&#160;</text>
<text text-anchor="start" x="415.25" y="-80.78" font-family="Roboto" font-size="8.00">Name</text>
<text text-anchor="start" x="437" y="-80.78" font-family="Roboto" font-size="8.00"> &#160;&#160;&#160;&#160;&#160;</text>
<text text-anchor="start" x="472.5" y="-80.78" font-family="Roboto" font-size="8.00"> &#160;&#160;&#160;&#160;&#160;</text>
<text text-anchor="start" x="486" y="-80.78" font-family="Roboto" font-size="8.00">CharField</text>
<text text-anchor="start" x="521.25" y="-80.78" font-family="Roboto" font-size="8.00"> &#160;&#160;&#160;&#160;&#160;</text>
<text text-anchor="start" x="401.75" y="-67.78" font-family="Roboto" font-size="8.00"> &#160;&#160;&#160;&#160;&#160;</text>
<text text-anchor="start" x="415.25" y="-67.78" font-family="Roboto" font-size="8.00" fill="#7b7b7b">Updated at</text>
<text text-anchor="start" x="455" y="-67.78" font-family="Roboto" font-size="8.00"> &#160;&#160;&#160;&#160;&#160;</text>
<text text-anchor="start" x="472.5" y="-67.78" font-family="Roboto" font-size="8.00"> &#160;&#160;&#160;&#160;&#160;</text>
<text text-anchor="start" x="486" y="-67.78" font-family="Roboto" font-size="8.00" fill="#7b7b7b">DateTimeField</text>
<text text-anchor="start" x="537.75" y="-67.78" font-family="Roboto" font-size="8.00"> &#160;&#160;&#160;&#160;&#160;</text>
<polygon fill="none" stroke="black" points="398.75,-62.38 398.75,-137.62 555,-137.62 555,-62.38 398.75,-62.38"/>
</g>
<!-- leavetype_models_DepartmentBasedLeaveType -->
<g id="node2" class="node">
<title>leavetype_models_DepartmentBasedLeaveType</title>
<polygon fill="white" stroke="none" points="24,-55.88 24,-144.12 195.25,-144.12 195.25,-55.88 24,-55.88"/>
<polygon fill="#1b563f" stroke="none" points="25,-121.88 25,-143.12 194.25,-143.12 194.25,-121.88 25,-121.88"/>
<text text-anchor="start" x="30.12" y="-129.62" font-family="Roboto" font-size="8.00"> &#160;&#160;&#160;&#160;&#160;</text>
<text text-anchor="start" x="43.62" y="-129.62" font-family="Roboto" font-weight="bold" font-size="10.00" fill="white"> &#160;&#160;&#160;&#160;&#160;Department Leave Type &#160;&#160;&#160;&#160;&#160;</text>
<text text-anchor="start" x="27" y="-113.28" font-family="Roboto" font-size="8.00"> &#160;&#160;&#160;&#160;&#160;</text>
<text text-anchor="start" x="40.5" y="-113.28" font-family="Roboto" font-weight="bold" font-size="8.00">ID</text>
<text text-anchor="start" x="48.75" y="-113.28" font-family="Roboto" font-size="8.00"> &#160;&#160;&#160;&#160;&#160;</text>
<text text-anchor="start" x="103.75" y="-113.28" font-family="Roboto" font-size="8.00"> &#160;&#160;&#160;&#160;&#160;</text>
<text text-anchor="start" x="117.25" y="-113.28" font-family="Roboto" font-weight="bold" font-size="8.00">BigAutoField</text>
<text text-anchor="start" x="169.75" y="-113.28" font-family="Roboto" font-size="8.00"> &#160;&#160;&#160;&#160;&#160;</text>
<text text-anchor="start" x="27" y="-100.28" font-family="Roboto" font-size="8.00"> &#160;&#160;&#160;&#160;&#160;</text>
<text text-anchor="start" x="40.5" y="-100.28" font-family="Roboto" font-weight="bold" font-size="8.00">Department</text>
<text text-anchor="start" x="86.25" y="-100.28" font-family="Roboto" font-size="8.00"> &#160;&#160;&#160;&#160;&#160;</text>
<text text-anchor="start" x="103.75" y="-100.28" font-family="Roboto" font-size="8.00"> &#160;&#160;&#160;&#160;&#160;</text>
<text text-anchor="start" x="117.25" y="-100.28" font-family="Roboto" font-weight="bold" font-size="8.00">ForeignKey (id)</text>
<text text-anchor="start" x="178.75" y="-100.28" font-family="Roboto" font-size="8.00"> &#160;&#160;&#160;&#160;&#160;</text>
<text text-anchor="start" x="27" y="-87.28" font-family="Roboto" font-size="8.00"> &#160;&#160;&#160;&#160;&#160;</text>
<text text-anchor="start" x="40.5" y="-87.28" font-family="Roboto" font-weight="bold" font-size="8.00">Leave type</text>
<text text-anchor="start" x="83.25" y="-87.28" font-family="Roboto" font-size="8.00"> &#160;&#160;&#160;&#160;&#160;</text>
<text text-anchor="start" x="103.75" y="-87.28" font-family="Roboto" font-size="8.00"> &#160;&#160;&#160;&#160;&#160;</text>
<text text-anchor="start" x="117.25" y="-87.28" font-family="Roboto" font-weight="bold" font-size="8.00">ForeignKey (id)</text>
<text text-anchor="start" x="178.75" y="-87.28" font-family="Roboto" font-size="8.00"> &#160;&#160;&#160;&#160;&#160;</text>
<text text-anchor="start" x="27" y="-74.28" font-family="Roboto" font-size="8.00"> &#160;&#160;&#160;&#160;&#160;</text>
<text text-anchor="start" x="40.5" y="-74.28" font-family="Roboto" font-size="8.00" fill="#7b7b7b">Created at</text>
<text text-anchor="start" x="78.75" y="-74.28" font-family="Roboto" font-size="8.00"> &#160;&#160;&#160;&#160;&#160;</text>
<text text-anchor="start" x="103.75" y="-74.28" font-family="Roboto" font-size="8.00"> &#160;&#160;&#160;&#160;&#160;</text>
<text text-anchor="start" x="117.25" y="-74.28" font-family="Roboto" font-size="8.00" fill="#7b7b7b">DateTimeField</text>
<text text-anchor="start" x="169" y="-74.28" font-family="Roboto" font-size="8.00"> &#160;&#160;&#160;&#160;&#160;</text>
<text text-anchor="start" x="27" y="-61.27" font-family="Roboto" font-size="8.00"> &#160;&#160;&#160;&#160;&#160;</text>
<text text-anchor="start" x="40.5" y="-61.27" font-family="Roboto" font-size="8.00" fill="#7b7b7b">Updated at</text>
<text text-anchor="start" x="80.25" y="-61.27" font-family="Roboto" font-size="8.00"> &#160;&#160;&#160;&#160;&#160;</text>
<text text-anchor="start" x="103.75" y="-61.27" font-family="Roboto" font-size="8.00"> &#160;&#160;&#160;&#160;&#160;</text>
<text text-anchor="start" x="117.25" y="-61.27" font-family="Roboto" font-size="8.00" fill="#7b7b7b">DateTimeField</text>
<text text-anchor="start" x="169" y="-61.27" font-family="Roboto" font-size="8.00"> &#160;&#160;&#160;&#160;&#160;</text>
<polygon fill="none" stroke="black" points="24,-55.88 24,-144.12 195.25,-144.12 195.25,-55.88 24,-55.88"/>
</g>
<!-- leavetype_models_DepartmentBasedLeaveType&#45;&gt;leavetype_models_LeaveType -->
<g id="edge2" class="edge">
<title>leavetype_models_DepartmentBasedLeaveType&#45;&gt;leavetype_models_LeaveType</title>
<path fill="none" stroke="black" d="M211.72,-100C268.06,-100 337.43,-100 390.94,-100"/>
<ellipse fill="black" stroke="black" cx="207.29" cy="-100" rx="4" ry="4"/>
<text text-anchor="middle" x="297" y="-101.4" font-family="Roboto" font-size="8.00"> Leave type (Departmentbasedleavetype)</text>
</g>
<!-- department_models_Department -->
<g id="node3" class="node">
<title>department_models_Department</title>
<polygon fill="white" stroke="none" points="437.25,-7.62 437.25,-28.38 516.5,-28.38 516.5,-7.62 437.25,-7.62"/>
<polygon fill="#1b563f" stroke="none" points="437.25,-7.62 437.25,-28.38 516.5,-28.38 516.5,-7.62 437.25,-7.62"/>
<text text-anchor="start" x="441.25" y="-13.97" font-family="Roboto" font-size="8.00"> &#160;</text>
<text text-anchor="start" x="445.75" y="-13.97" font-family="Roboto" font-size="12.00" fill="white">Department</text>
<text text-anchor="start" x="508" y="-13.97" font-family="Roboto" font-size="8.00"> &#160;</text>
</g>
<!-- leavetype_models_DepartmentBasedLeaveType&#45;&gt;department_models_Department -->
<g id="edge1" class="edge">
<title>leavetype_models_DepartmentBasedLeaveType&#45;&gt;department_models_Department</title>
<path fill="none" stroke="black" d="M211.37,-77.38C282.63,-61.38 374.85,-40.68 429.45,-28.42"/>
<ellipse fill="black" stroke="black" cx="207.18" cy="-78.32" rx="4" ry="4"/>
<text text-anchor="middle" x="297" y="-74.88" font-family="Roboto" font-size="8.00"> Department (Departmentbasedleavetype)</text>
</g>
<!-- \n\n\n -->
<g id="node4" class="node">
<title>\n\n\n</title>
</g>
</g>
</svg>
