<?xml version="1.0" encoding="UTF-8" standalone="no"?>
<!DOCTYPE svg PUBLIC "-//W3C//DTD SVG 1.1//EN"
 "http://www.w3.org/Graphics/SVG/1.1/DTD/svg11.dtd">
<!-- Generated by graphviz version 12.2.1 (20241206.2353)
 -->
<!-- Title: model_graph Pages: 1 -->
<svg width="463pt" height="277pt"
 viewBox="0.00 0.00 463.25 277.00" xmlns="http://www.w3.org/2000/svg" xmlns:xlink="http://www.w3.org/1999/xlink">
<g id="graph0" class="graph" transform="scale(1 1) rotate(0) translate(4 273)">
<title>model_graph</title>
<polygon fill="white" stroke="none" points="-4,4 -4,-273 459.25,-273 459.25,4 -4,4"/>
<g id="clust1" class="cluster">
<title>cluster_notificationapp</title>
<path fill="none" stroke="#698b22" d="M20,-8C20,-8 213.5,-8 213.5,-8 219.5,-8 225.5,-14 225.5,-20 225.5,-20 225.5,-213 225.5,-213 225.5,-219 219.5,-225 213.5,-225 213.5,-225 20,-225 20,-225 14,-225 8,-219 8,-213 8,-213 8,-20 8,-20 8,-14 14,-8 20,-8"/>
<text text-anchor="start" x="29.38" y="-208.5" font-family="Roboto" font-size="8.00"> &#160;&#160;&#160;&#160;&#160;&#160;&#160;&#160;&#160;</text>
<text text-anchor="start" x="51.88" y="-208.5" font-family="Roboto" font-size="10.00"> &#160;&#160;&#160;&#160;&#160;&#160;&#160;&#160;&#160;</text>
<text text-anchor="start" x="81.88" y="-208.5" font-family="Roboto" font-weight="bold" font-size="10.00">notificationapp</text>
<text text-anchor="start" x="151.62" y="-208.5" font-family="Roboto" font-size="10.00"> &#160;&#160;&#160;&#160;&#160;&#160;&#160;&#160;&#160;</text>
<text text-anchor="start" x="181.62" y="-208.5" font-family="Roboto" font-size="8.00"> &#160;&#160;&#160;&#160;&#160;&#160;&#160;&#160;&#160;</text>
</g>
<!-- notificationapp_models_Notification -->
<g id="node1" class="node">
<title>notificationapp_models_Notification</title>
<polygon fill="white" stroke="none" points="24,-19.88 24,-186.12 209.5,-186.12 209.5,-19.88 24,-19.88"/>
<polygon fill="#1b563f" stroke="none" points="25,-163.88 25,-185.12 208.5,-185.12 208.5,-163.88 25,-163.88"/>
<text text-anchor="start" x="65" y="-171.62" font-family="Roboto" font-size="8.00"> &#160;&#160;&#160;&#160;&#160;</text>
<text text-anchor="start" x="78.5" y="-171.62" font-family="Roboto" font-weight="bold" font-size="10.00" fill="white"> &#160;&#160;&#160;&#160;&#160;Notification &#160;&#160;&#160;&#160;&#160;</text>
<text text-anchor="start" x="27" y="-155.28" font-family="Roboto" font-size="8.00"> &#160;&#160;&#160;&#160;&#160;</text>
<text text-anchor="start" x="40.5" y="-155.28" font-family="Roboto" font-weight="bold" font-size="8.00">ID</text>
<text text-anchor="start" x="48.75" y="-155.28" font-family="Roboto" font-size="8.00"> &#160;&#160;&#160;&#160;&#160;</text>
<text text-anchor="start" x="109.75" y="-155.28" font-family="Roboto" font-size="8.00"> &#160;&#160;&#160;&#160;&#160;</text>
<text text-anchor="start" x="123.25" y="-155.28" font-family="Roboto" font-weight="bold" font-size="8.00">BigAutoField</text>
<text text-anchor="start" x="175.75" y="-155.28" font-family="Roboto" font-size="8.00"> &#160;&#160;&#160;&#160;&#160;</text>
<text text-anchor="start" x="27" y="-142.28" font-family="Roboto" font-size="8.00"> &#160;&#160;&#160;&#160;&#160;</text>
<text text-anchor="start" x="40.5" y="-142.28" font-family="Roboto" font-weight="bold" font-size="8.00" fill="#7b7b7b">Actor</text>
<text text-anchor="start" x="62.25" y="-142.28" font-family="Roboto" font-size="8.00"> &#160;&#160;&#160;&#160;&#160;</text>
<text text-anchor="start" x="109.75" y="-142.28" font-family="Roboto" font-size="8.00"> &#160;&#160;&#160;&#160;&#160;</text>
<text text-anchor="start" x="123.25" y="-142.28" font-family="Roboto" font-weight="bold" font-size="8.00" fill="#7b7b7b">ForeignKey (id)</text>
<text text-anchor="start" x="184.75" y="-142.28" font-family="Roboto" font-size="8.00"> &#160;&#160;&#160;&#160;&#160;</text>
<text text-anchor="start" x="27" y="-129.28" font-family="Roboto" font-size="8.00"> &#160;&#160;&#160;&#160;&#160;</text>
<text text-anchor="start" x="40.5" y="-129.28" font-family="Roboto" font-weight="bold" font-size="8.00" fill="#7b7b7b">Content type</text>
<text text-anchor="start" x="92.25" y="-129.28" font-family="Roboto" font-size="8.00"> &#160;&#160;&#160;&#160;&#160;</text>
<text text-anchor="start" x="109.75" y="-129.28" font-family="Roboto" font-size="8.00"> &#160;&#160;&#160;&#160;&#160;</text>
<text text-anchor="start" x="123.25" y="-129.28" font-family="Roboto" font-weight="bold" font-size="8.00" fill="#7b7b7b">ForeignKey (id)</text>
<text text-anchor="start" x="184.75" y="-129.28" font-family="Roboto" font-size="8.00"> &#160;&#160;&#160;&#160;&#160;</text>
<text text-anchor="start" x="27" y="-116.28" font-family="Roboto" font-size="8.00"> &#160;&#160;&#160;&#160;&#160;</text>
<text text-anchor="start" x="40.5" y="-116.28" font-family="Roboto" font-weight="bold" font-size="8.00">Recipient</text>
<text text-anchor="start" x="78" y="-116.28" font-family="Roboto" font-size="8.00"> &#160;&#160;&#160;&#160;&#160;</text>
<text text-anchor="start" x="109.75" y="-116.28" font-family="Roboto" font-size="8.00"> &#160;&#160;&#160;&#160;&#160;</text>
<text text-anchor="start" x="123.25" y="-116.28" font-family="Roboto" font-weight="bold" font-size="8.00">ForeignKey (id)</text>
<text text-anchor="start" x="184.75" y="-116.28" font-family="Roboto" font-size="8.00"> &#160;&#160;&#160;&#160;&#160;</text>
<text text-anchor="start" x="27" y="-103.28" font-family="Roboto" font-size="8.00"> &#160;&#160;&#160;&#160;&#160;</text>
<text text-anchor="start" x="40.5" y="-103.28" font-family="Roboto" font-size="8.00" fill="#7b7b7b">Action url</text>
<text text-anchor="start" x="73.5" y="-103.28" font-family="Roboto" font-size="8.00"> &#160;&#160;&#160;&#160;&#160;</text>
<text text-anchor="start" x="109.75" y="-103.28" font-family="Roboto" font-size="8.00"> &#160;&#160;&#160;&#160;&#160;</text>
<text text-anchor="start" x="123.25" y="-103.28" font-family="Roboto" font-size="8.00" fill="#7b7b7b">URLField</text>
<text text-anchor="start" x="157" y="-103.28" font-family="Roboto" font-size="8.00"> &#160;&#160;&#160;&#160;&#160;</text>
<text text-anchor="start" x="27" y="-90.28" font-family="Roboto" font-size="8.00"> &#160;&#160;&#160;&#160;&#160;</text>
<text text-anchor="start" x="40.5" y="-90.28" font-family="Roboto" font-size="8.00" fill="#7b7b7b">Description</text>
<text text-anchor="start" x="80.25" y="-90.28" font-family="Roboto" font-size="8.00"> &#160;&#160;&#160;&#160;&#160;</text>
<text text-anchor="start" x="109.75" y="-90.28" font-family="Roboto" font-size="8.00"> &#160;&#160;&#160;&#160;&#160;</text>
<text text-anchor="start" x="123.25" y="-90.28" font-family="Roboto" font-size="8.00" fill="#7b7b7b">TextField</text>
<text text-anchor="start" x="154.75" y="-90.28" font-family="Roboto" font-size="8.00"> &#160;&#160;&#160;&#160;&#160;</text>
<text text-anchor="start" x="27" y="-77.28" font-family="Roboto" font-size="8.00"> &#160;&#160;&#160;&#160;&#160;</text>
<text text-anchor="start" x="40.5" y="-77.28" font-family="Roboto" font-size="8.00">Level</text>
<text text-anchor="start" x="59.25" y="-77.28" font-family="Roboto" font-size="8.00"> &#160;&#160;&#160;&#160;&#160;</text>
<text text-anchor="start" x="109.75" y="-77.28" font-family="Roboto" font-size="8.00"> &#160;&#160;&#160;&#160;&#160;</text>
<text text-anchor="start" x="123.25" y="-77.28" font-family="Roboto" font-size="8.00">CharField</text>
<text text-anchor="start" x="158.5" y="-77.28" font-family="Roboto" font-size="8.00"> &#160;&#160;&#160;&#160;&#160;</text>
<text text-anchor="start" x="27" y="-64.28" font-family="Roboto" font-size="8.00"> &#160;&#160;&#160;&#160;&#160;</text>
<text text-anchor="start" x="40.5" y="-64.28" font-family="Roboto" font-size="8.00" fill="#7b7b7b">Object id</text>
<text text-anchor="start" x="71.25" y="-64.28" font-family="Roboto" font-size="8.00"> &#160;&#160;&#160;&#160;&#160;</text>
<text text-anchor="start" x="109.75" y="-64.28" font-family="Roboto" font-size="8.00"> &#160;&#160;&#160;&#160;&#160;</text>
<text text-anchor="start" x="123.25" y="-64.28" font-family="Roboto" font-size="8.00" fill="#7b7b7b">PositiveIntegerField</text>
<text text-anchor="start" x="193" y="-64.28" font-family="Roboto" font-size="8.00"> &#160;&#160;&#160;&#160;&#160;</text>
<text text-anchor="start" x="27" y="-51.27" font-family="Roboto" font-size="8.00"> &#160;&#160;&#160;&#160;&#160;</text>
<text text-anchor="start" x="40.5" y="-51.27" font-family="Roboto" font-size="8.00">Read</text>
<text text-anchor="start" x="60" y="-51.27" font-family="Roboto" font-size="8.00"> &#160;&#160;&#160;&#160;&#160;</text>
<text text-anchor="start" x="109.75" y="-51.27" font-family="Roboto" font-size="8.00"> &#160;&#160;&#160;&#160;&#160;</text>
<text text-anchor="start" x="123.25" y="-51.27" font-family="Roboto" font-size="8.00">BooleanField</text>
<text text-anchor="start" x="169.75" y="-51.27" font-family="Roboto" font-size="8.00"> &#160;&#160;&#160;&#160;&#160;</text>
<text text-anchor="start" x="27" y="-38.27" font-family="Roboto" font-size="8.00"> &#160;&#160;&#160;&#160;&#160;</text>
<text text-anchor="start" x="40.5" y="-38.27" font-family="Roboto" font-size="8.00" fill="#7b7b7b">Timestamp</text>
<text text-anchor="start" x="79.5" y="-38.27" font-family="Roboto" font-size="8.00"> &#160;&#160;&#160;&#160;&#160;</text>
<text text-anchor="start" x="109.75" y="-38.27" font-family="Roboto" font-size="8.00"> &#160;&#160;&#160;&#160;&#160;</text>
<text text-anchor="start" x="123.25" y="-38.27" font-family="Roboto" font-size="8.00" fill="#7b7b7b">DateTimeField</text>
<text text-anchor="start" x="175" y="-38.27" font-family="Roboto" font-size="8.00"> &#160;&#160;&#160;&#160;&#160;</text>
<text text-anchor="start" x="27" y="-25.27" font-family="Roboto" font-size="8.00"> &#160;&#160;&#160;&#160;&#160;</text>
<text text-anchor="start" x="40.5" y="-25.27" font-family="Roboto" font-size="8.00">Verb</text>
<text text-anchor="start" x="57.75" y="-25.27" font-family="Roboto" font-size="8.00"> &#160;&#160;&#160;&#160;&#160;</text>
<text text-anchor="start" x="109.75" y="-25.27" font-family="Roboto" font-size="8.00"> &#160;&#160;&#160;&#160;&#160;</text>
<text text-anchor="start" x="123.25" y="-25.27" font-family="Roboto" font-size="8.00">CharField</text>
<text text-anchor="start" x="158.5" y="-25.27" font-family="Roboto" font-size="8.00"> &#160;&#160;&#160;&#160;&#160;</text>
<polygon fill="none" stroke="black" points="24,-19.88 24,-186.12 209.5,-186.12 209.5,-19.88 24,-19.88"/>
</g>
<!-- django_contrib_auth_models_User -->
<g id="node2" class="node">
<title>django_contrib_auth_models_User</title>
<polygon fill="white" stroke="none" points="383.38,-119.62 383.38,-140.38 425.88,-140.38 425.88,-119.62 383.38,-119.62"/>
<polygon fill="#1b563f" stroke="none" points="383.38,-119.62 383.38,-140.38 425.88,-140.38 425.88,-119.62 383.38,-119.62"/>
<text text-anchor="start" x="387.38" y="-125.97" font-family="Roboto" font-size="8.00"> &#160;</text>
<text text-anchor="start" x="391.88" y="-125.97" font-family="Roboto" font-size="12.00" fill="white">User</text>
<text text-anchor="start" x="417.38" y="-125.97" font-family="Roboto" font-size="8.00"> &#160;</text>
</g>
<!-- notificationapp_models_Notification&#45;&gt;django_contrib_auth_models_User -->
<g id="edge1" class="edge">
<title>notificationapp_models_Notification&#45;&gt;django_contrib_auth_models_User</title>
<path fill="none" stroke="black" d="M226.26,-113.25C280.1,-118.33 340.87,-124.07 375.47,-127.34"/>
<ellipse fill="black" stroke="black" cx="221.81" cy="-112.83" rx="4" ry="4"/>
<text text-anchor="middle" x="285.75" y="-124.88" font-family="Roboto" font-size="8.00"> Actor (Initiated notifications)</text>
</g>
<!-- notificationapp_models_Notification&#45;&gt;django_contrib_auth_models_User -->
<g id="edge2" class="edge">
<title>notificationapp_models_Notification&#45;&gt;django_contrib_auth_models_User</title>
<path fill="none" stroke="black" d="M226.22,-95.8C261.49,-95.5 300.64,-97.35 336,-104 349.47,-106.53 363.73,-111.62 375.67,-116.63"/>
<ellipse fill="black" stroke="black" cx="221.84" cy="-95.86" rx="4" ry="4"/>
<text text-anchor="middle" x="285.75" y="-105.4" font-family="Roboto" font-size="8.00"> Recipient (Notifications)</text>
</g>
<!-- django_contrib_contenttypes_models_ContentType -->
<g id="node3" class="node">
<title>django_contrib_contenttypes_models_ContentType</title>
<polygon fill="white" stroke="none" points="362,-60.62 362,-81.38 447.25,-81.38 447.25,-60.62 362,-60.62"/>
<polygon fill="#1b563f" stroke="none" points="362,-60.62 362,-81.38 447.25,-81.38 447.25,-60.62 362,-60.62"/>
<text text-anchor="start" x="366" y="-66.97" font-family="Roboto" font-size="8.00"> &#160;</text>
<text text-anchor="start" x="370.5" y="-66.97" font-family="Roboto" font-size="12.00" fill="white">ContentType</text>
<text text-anchor="start" x="438.75" y="-66.97" font-family="Roboto" font-size="8.00"> &#160;</text>
</g>
<!-- notificationapp_models_Notification&#45;&gt;django_contrib_contenttypes_models_ContentType -->
<g id="edge3" class="edge">
<title>notificationapp_models_Notification&#45;&gt;django_contrib_contenttypes_models_ContentType</title>
<path fill="none" stroke="black" d="M225.87,-84.22C229.11,-83.79 232.33,-83.38 235.5,-83 275.3,-78.21 320.65,-75.11 354.22,-73.26"/>
<ellipse fill="black" stroke="black" cx="221.68" cy="-84.79" rx="4" ry="4"/>
<text text-anchor="middle" x="285.75" y="-84.4" font-family="Roboto" font-size="8.00"> Content type (Notification)</text>
</g>
<!-- \n\n\n -->
<g id="node4" class="node">
<title>\n\n\n</title>
</g>
</g>
</svg>
