<?xml version="1.0" encoding="UTF-8" standalone="no"?>
<!DOCTYPE svg PUBLIC "-//W3C//DTD SVG 1.1//EN"
 "http://www.w3.org/Graphics/SVG/1.1/DTD/svg11.dtd">
<!-- Generated by graphviz version 12.2.1 (20241206.2353)
 -->
<!-- Title: model_graph Pages: 1 -->
<svg width="245pt" height="163pt"
 viewBox="0.00 0.00 244.50 163.00" xmlns="http://www.w3.org/2000/svg" xmlns:xlink="http://www.w3.org/1999/xlink">
<g id="graph0" class="graph" transform="scale(1 1) rotate(0) translate(4 159)">
<title>model_graph</title>
<polygon fill="white" stroke="none" points="-4,4 -4,-159 240.5,-159 240.5,4 -4,4"/>
<g id="clust1" class="cluster">
<title>cluster_payperiod</title>
<path fill="none" stroke="#698b22" d="M20,-8C20,-8 216.5,-8 216.5,-8 222.5,-8 228.5,-14 228.5,-20 228.5,-20 228.5,-135 228.5,-135 228.5,-141 222.5,-147 216.5,-147 216.5,-147 20,-147 20,-147 14,-147 8,-141 8,-135 8,-135 8,-20 8,-20 8,-14 14,-8 20,-8"/>
<text text-anchor="start" x="42.5" y="-130.5" font-family="Roboto" font-size="8.00"> &#160;&#160;&#160;&#160;&#160;&#160;&#160;&#160;&#160;</text>
<text text-anchor="start" x="65" y="-130.5" font-family="Roboto" font-size="10.00"> &#160;&#160;&#160;&#160;&#160;&#160;&#160;&#160;&#160;</text>
<text text-anchor="start" x="95" y="-130.5" font-family="Roboto" font-weight="bold" font-size="10.00">payperiod</text>
<text text-anchor="start" x="141.5" y="-130.5" font-family="Roboto" font-size="10.00"> &#160;&#160;&#160;&#160;&#160;&#160;&#160;&#160;&#160;</text>
<text text-anchor="start" x="171.5" y="-130.5" font-family="Roboto" font-size="8.00"> &#160;&#160;&#160;&#160;&#160;&#160;&#160;&#160;&#160;</text>
</g>
<!-- payperiod_models_PayPeriod -->
<g id="node1" class="node">
<title>payperiod_models_PayPeriod</title>
<polygon fill="white" stroke="none" points="24,-19.88 24,-108.12 212.5,-108.12 212.5,-19.88 24,-19.88"/>
<polygon fill="#1b563f" stroke="none" points="25,-85.88 25,-107.12 211.5,-107.12 211.5,-85.88 25,-85.88"/>
<text text-anchor="start" x="68" y="-93.62" font-family="Roboto" font-size="8.00"> &#160;&#160;&#160;&#160;&#160;</text>
<text text-anchor="start" x="81.5" y="-93.62" font-family="Roboto" font-weight="bold" font-size="10.00" fill="white"> &#160;&#160;&#160;&#160;&#160;Pay Period &#160;&#160;&#160;&#160;&#160;</text>
<text text-anchor="start" x="27" y="-77.28" font-family="Roboto" font-size="8.00"> &#160;&#160;&#160;&#160;&#160;</text>
<text text-anchor="start" x="40.5" y="-77.28" font-family="Roboto" font-weight="bold" font-size="8.00">ID</text>
<text text-anchor="start" x="48.75" y="-77.28" font-family="Roboto" font-size="8.00"> &#160;&#160;&#160;&#160;&#160;</text>
<text text-anchor="start" x="130" y="-77.28" font-family="Roboto" font-size="8.00"> &#160;&#160;&#160;&#160;&#160;</text>
<text text-anchor="start" x="143.5" y="-77.28" font-family="Roboto" font-weight="bold" font-size="8.00">BigAutoField</text>
<text text-anchor="start" x="196" y="-77.28" font-family="Roboto" font-size="8.00"> &#160;&#160;&#160;&#160;&#160;</text>
<text text-anchor="start" x="27" y="-64.28" font-family="Roboto" font-size="8.00"> &#160;&#160;&#160;&#160;&#160;</text>
<text text-anchor="start" x="40.5" y="-64.28" font-family="Roboto" font-size="8.00" fill="#7b7b7b">Created At</text>
<text text-anchor="start" x="79.5" y="-64.28" font-family="Roboto" font-size="8.00"> &#160;&#160;&#160;&#160;&#160;</text>
<text text-anchor="start" x="130" y="-64.28" font-family="Roboto" font-size="8.00"> &#160;&#160;&#160;&#160;&#160;</text>
<text text-anchor="start" x="143.5" y="-64.28" font-family="Roboto" font-size="8.00" fill="#7b7b7b">DateTimeField</text>
<text text-anchor="start" x="195.25" y="-64.28" font-family="Roboto" font-size="8.00"> &#160;&#160;&#160;&#160;&#160;</text>
<text text-anchor="start" x="27" y="-51.27" font-family="Roboto" font-size="8.00"> &#160;&#160;&#160;&#160;&#160;</text>
<text text-anchor="start" x="40.5" y="-51.27" font-family="Roboto" font-size="8.00">End Date and Time</text>
<text text-anchor="start" x="109.5" y="-51.27" font-family="Roboto" font-size="8.00"> &#160;&#160;&#160;&#160;&#160;</text>
<text text-anchor="start" x="130" y="-51.27" font-family="Roboto" font-size="8.00"> &#160;&#160;&#160;&#160;&#160;</text>
<text text-anchor="start" x="143.5" y="-51.27" font-family="Roboto" font-size="8.00">DateTimeField</text>
<text text-anchor="start" x="195.25" y="-51.27" font-family="Roboto" font-size="8.00"> &#160;&#160;&#160;&#160;&#160;</text>
<text text-anchor="start" x="27" y="-38.27" font-family="Roboto" font-size="8.00"> &#160;&#160;&#160;&#160;&#160;</text>
<text text-anchor="start" x="40.5" y="-38.27" font-family="Roboto" font-size="8.00">Start Date and Time</text>
<text text-anchor="start" x="112.5" y="-38.27" font-family="Roboto" font-size="8.00"> &#160;&#160;&#160;&#160;&#160;</text>
<text text-anchor="start" x="130" y="-38.27" font-family="Roboto" font-size="8.00"> &#160;&#160;&#160;&#160;&#160;</text>
<text text-anchor="start" x="143.5" y="-38.27" font-family="Roboto" font-size="8.00">DateTimeField</text>
<text text-anchor="start" x="195.25" y="-38.27" font-family="Roboto" font-size="8.00"> &#160;&#160;&#160;&#160;&#160;</text>
<text text-anchor="start" x="27" y="-25.27" font-family="Roboto" font-size="8.00"> &#160;&#160;&#160;&#160;&#160;</text>
<text text-anchor="start" x="40.5" y="-25.27" font-family="Roboto" font-size="8.00" fill="#7b7b7b">Updated At</text>
<text text-anchor="start" x="81" y="-25.27" font-family="Roboto" font-size="8.00"> &#160;&#160;&#160;&#160;&#160;</text>
<text text-anchor="start" x="130" y="-25.27" font-family="Roboto" font-size="8.00"> &#160;&#160;&#160;&#160;&#160;</text>
<text text-anchor="start" x="143.5" y="-25.27" font-family="Roboto" font-size="8.00" fill="#7b7b7b">DateTimeField</text>
<text text-anchor="start" x="195.25" y="-25.27" font-family="Roboto" font-size="8.00"> &#160;&#160;&#160;&#160;&#160;</text>
<polygon fill="none" stroke="black" points="24,-19.88 24,-108.12 212.5,-108.12 212.5,-19.88 24,-19.88"/>
</g>
</g>
</svg>
