<?xml version="1.0" encoding="UTF-8" standalone="no"?>
<!DOCTYPE svg PUBLIC "-//W3C//DTD SVG 1.1//EN"
 "http://www.w3.org/Graphics/SVG/1.1/DTD/svg11.dtd">
<!-- Generated by graphviz version 12.2.1 (20241206.2353)
 -->
<!-- Title: model_graph Pages: 1 -->
<svg width="974pt" height="489pt"
 viewBox="0.00 0.00 973.62 488.69" xmlns="http://www.w3.org/2000/svg" xmlns:xlink="http://www.w3.org/1999/xlink">
<g id="graph0" class="graph" transform="scale(1 1) rotate(0) translate(4 484.69)">
<title>model_graph</title>
<polygon fill="white" stroke="none" points="-4,4 -4,-484.69 969.62,-484.69 969.62,4 -4,4"/>
<g id="clust1" class="cluster">
<title>cluster_ptobalance</title>
<path fill="none" stroke="#698b22" d="M20,-118.69C20,-118.69 240.5,-118.69 240.5,-118.69 246.5,-118.69 252.5,-124.69 252.5,-130.69 252.5,-130.69 252.5,-297.69 252.5,-297.69 252.5,-303.69 246.5,-309.69 240.5,-309.69 240.5,-309.69 20,-309.69 20,-309.69 14,-309.69 8,-303.69 8,-297.69 8,-297.69 8,-130.69 8,-130.69 8,-124.69 14,-118.69 20,-118.69"/>
<text text-anchor="start" x="52.25" y="-293.19" font-family="Roboto" font-size="8.00"> &#160;&#160;&#160;&#160;&#160;&#160;&#160;&#160;&#160;</text>
<text text-anchor="start" x="74.75" y="-293.19" font-family="Roboto" font-size="10.00"> &#160;&#160;&#160;&#160;&#160;&#160;&#160;&#160;&#160;</text>
<text text-anchor="start" x="104.75" y="-293.19" font-family="Roboto" font-weight="bold" font-size="10.00">ptobalance</text>
<text text-anchor="start" x="155.75" y="-293.19" font-family="Roboto" font-size="10.00"> &#160;&#160;&#160;&#160;&#160;&#160;&#160;&#160;&#160;</text>
<text text-anchor="start" x="185.75" y="-293.19" font-family="Roboto" font-size="8.00"> &#160;&#160;&#160;&#160;&#160;&#160;&#160;&#160;&#160;</text>
</g>
<g id="clust2" class="cluster">
<title>cluster_accuralrates</title>
<path fill="none" stroke="#698b22" d="M415.38,-219.69C415.38,-219.69 617.88,-219.69 617.88,-219.69 623.88,-219.69 629.88,-225.69 629.88,-231.69 629.88,-231.69 629.88,-386.69 629.88,-386.69 629.88,-392.69 623.88,-398.69 617.88,-398.69 617.88,-398.69 415.38,-398.69 415.38,-398.69 409.38,-398.69 403.38,-392.69 403.38,-386.69 403.38,-386.69 403.38,-231.69 403.38,-231.69 403.38,-225.69 409.38,-219.69 415.38,-219.69"/>
<text text-anchor="start" x="436" y="-382.19" font-family="Roboto" font-size="8.00"> &#160;&#160;&#160;&#160;&#160;&#160;&#160;&#160;&#160;</text>
<text text-anchor="start" x="458.5" y="-382.19" font-family="Roboto" font-size="10.00"> &#160;&#160;&#160;&#160;&#160;&#160;&#160;&#160;&#160;</text>
<text text-anchor="start" x="488.5" y="-382.19" font-family="Roboto" font-weight="bold" font-size="10.00">accuralrates</text>
<text text-anchor="start" x="544.75" y="-382.19" font-family="Roboto" font-size="10.00"> &#160;&#160;&#160;&#160;&#160;&#160;&#160;&#160;&#160;</text>
<text text-anchor="start" x="574.75" y="-382.19" font-family="Roboto" font-size="8.00"> &#160;&#160;&#160;&#160;&#160;&#160;&#160;&#160;&#160;</text>
</g>
<g id="clust3" class="cluster">
<title>cluster_employeetype</title>
<path fill="none" stroke="#698b22" d="M779.25,-345.69C779.25,-345.69 948.75,-345.69 948.75,-345.69 954.75,-345.69 960.75,-351.69 960.75,-357.69 960.75,-357.69 960.75,-460.69 960.75,-460.69 960.75,-466.69 954.75,-472.69 948.75,-472.69 948.75,-472.69 779.25,-472.69 779.25,-472.69 773.25,-472.69 767.25,-466.69 767.25,-460.69 767.25,-460.69 767.25,-357.69 767.25,-357.69 767.25,-351.69 773.25,-345.69 779.25,-345.69"/>
<text text-anchor="start" x="779.25" y="-456.19" font-family="Roboto" font-size="8.00"> &#160;&#160;&#160;&#160;&#160;&#160;&#160;&#160;&#160;</text>
<text text-anchor="start" x="801.75" y="-456.19" font-family="Roboto" font-size="10.00"> &#160;&#160;&#160;&#160;&#160;&#160;&#160;&#160;&#160;</text>
<text text-anchor="start" x="831.75" y="-456.19" font-family="Roboto" font-weight="bold" font-size="10.00">employeetype</text>
<text text-anchor="start" x="896.25" y="-456.19" font-family="Roboto" font-size="10.00"> &#160;&#160;&#160;&#160;&#160;&#160;&#160;&#160;&#160;</text>
<text text-anchor="start" x="926.25" y="-456.19" font-family="Roboto" font-size="8.00"> &#160;&#160;&#160;&#160;&#160;&#160;&#160;&#160;&#160;</text>
</g>
<g id="clust4" class="cluster">
<title>cluster_payfrequency</title>
<path fill="none" stroke="#698b22" d="M780.38,-181.69C780.38,-181.69 947.62,-181.69 947.62,-181.69 953.62,-181.69 959.62,-187.69 959.62,-193.69 959.62,-193.69 959.62,-296.69 959.62,-296.69 959.62,-302.69 953.62,-308.69 947.62,-308.69 947.62,-308.69 780.38,-308.69 780.38,-308.69 774.38,-308.69 768.38,-302.69 768.38,-296.69 768.38,-296.69 768.38,-193.69 768.38,-193.69 768.38,-187.69 774.38,-181.69 780.38,-181.69"/>
<text text-anchor="start" x="780.38" y="-292.19" font-family="Roboto" font-size="8.00"> &#160;&#160;&#160;&#160;&#160;&#160;&#160;&#160;&#160;</text>
<text text-anchor="start" x="802.88" y="-292.19" font-family="Roboto" font-size="10.00"> &#160;&#160;&#160;&#160;&#160;&#160;&#160;&#160;&#160;</text>
<text text-anchor="start" x="832.88" y="-292.19" font-family="Roboto" font-weight="bold" font-size="10.00">payfrequency</text>
<text text-anchor="start" x="895.12" y="-292.19" font-family="Roboto" font-size="10.00"> &#160;&#160;&#160;&#160;&#160;&#160;&#160;&#160;&#160;</text>
<text text-anchor="start" x="925.12" y="-292.19" font-family="Roboto" font-size="8.00"> &#160;&#160;&#160;&#160;&#160;&#160;&#160;&#160;&#160;</text>
</g>
<g id="clust5" class="cluster">
<title>cluster_yearofexperience</title>
<path fill="none" stroke="#698b22" d="M407.5,-35.69C407.5,-35.69 625.75,-35.69 625.75,-35.69 631.75,-35.69 637.75,-41.69 637.75,-47.69 637.75,-47.69 637.75,-162.69 637.75,-162.69 637.75,-168.69 631.75,-174.69 625.75,-174.69 625.75,-174.69 407.5,-174.69 407.5,-174.69 401.5,-174.69 395.5,-168.69 395.5,-162.69 395.5,-162.69 395.5,-47.69 395.5,-47.69 395.5,-41.69 401.5,-35.69 407.5,-35.69"/>
<text text-anchor="start" x="424.75" y="-158.19" font-family="Roboto" font-size="8.00"> &#160;&#160;&#160;&#160;&#160;&#160;&#160;&#160;&#160;</text>
<text text-anchor="start" x="447.25" y="-158.19" font-family="Roboto" font-size="10.00"> &#160;&#160;&#160;&#160;&#160;&#160;&#160;&#160;&#160;</text>
<text text-anchor="start" x="477.25" y="-158.19" font-family="Roboto" font-weight="bold" font-size="10.00">yearofexperience</text>
<text text-anchor="start" x="556" y="-158.19" font-family="Roboto" font-size="10.00"> &#160;&#160;&#160;&#160;&#160;&#160;&#160;&#160;&#160;</text>
<text text-anchor="start" x="586" y="-158.19" font-family="Roboto" font-size="8.00"> &#160;&#160;&#160;&#160;&#160;&#160;&#160;&#160;&#160;</text>
</g>
<!-- ptobalance_models_PTOBalance -->
<g id="node1" class="node">
<title>ptobalance_models_PTOBalance</title>
<polygon fill="white" stroke="none" points="24,-130.56 24,-270.81 236.5,-270.81 236.5,-130.56 24,-130.56"/>
<polygon fill="#1b563f" stroke="none" points="25,-248.56 25,-269.81 235.5,-269.81 235.5,-248.56 25,-248.56"/>
<text text-anchor="start" x="75.12" y="-256.31" font-family="Roboto" font-size="8.00"> &#160;&#160;&#160;&#160;&#160;</text>
<text text-anchor="start" x="88.62" y="-256.31" font-family="Roboto" font-weight="bold" font-size="10.00" fill="white"> &#160;&#160;&#160;&#160;&#160;PTO Balance &#160;&#160;&#160;&#160;&#160;</text>
<text text-anchor="start" x="27" y="-239.96" font-family="Roboto" font-size="8.00"> &#160;&#160;&#160;&#160;&#160;</text>
<text text-anchor="start" x="40.5" y="-239.96" font-family="Roboto" font-weight="bold" font-size="8.00">ID</text>
<text text-anchor="start" x="48.75" y="-239.96" font-family="Roboto" font-size="8.00"> &#160;&#160;&#160;&#160;&#160;</text>
<text text-anchor="start" x="130.75" y="-239.96" font-family="Roboto" font-size="8.00"> &#160;&#160;&#160;&#160;&#160;</text>
<text text-anchor="start" x="144.25" y="-239.96" font-family="Roboto" font-weight="bold" font-size="8.00">BigAutoField</text>
<text text-anchor="start" x="196.75" y="-239.96" font-family="Roboto" font-size="8.00"> &#160;&#160;&#160;&#160;&#160;</text>
<text text-anchor="start" x="27" y="-226.96" font-family="Roboto" font-size="8.00"> &#160;&#160;&#160;&#160;&#160;</text>
<text text-anchor="start" x="40.5" y="-226.96" font-family="Roboto" font-weight="bold" font-size="8.00">Accrual rate</text>
<text text-anchor="start" x="87.75" y="-226.96" font-family="Roboto" font-size="8.00"> &#160;&#160;&#160;&#160;&#160;</text>
<text text-anchor="start" x="130.75" y="-226.96" font-family="Roboto" font-size="8.00"> &#160;&#160;&#160;&#160;&#160;</text>
<text text-anchor="start" x="144.25" y="-226.96" font-family="Roboto" font-weight="bold" font-size="8.00">ForeignKey (id)</text>
<text text-anchor="start" x="205.75" y="-226.96" font-family="Roboto" font-size="8.00"> &#160;&#160;&#160;&#160;&#160;</text>
<text text-anchor="start" x="27" y="-213.96" font-family="Roboto" font-size="8.00"> &#160;&#160;&#160;&#160;&#160;</text>
<text text-anchor="start" x="40.5" y="-213.96" font-family="Roboto" font-weight="bold" font-size="8.00">Employee type</text>
<text text-anchor="start" x="98.25" y="-213.96" font-family="Roboto" font-size="8.00"> &#160;&#160;&#160;&#160;&#160;</text>
<text text-anchor="start" x="130.75" y="-213.96" font-family="Roboto" font-size="8.00"> &#160;&#160;&#160;&#160;&#160;</text>
<text text-anchor="start" x="144.25" y="-213.96" font-family="Roboto" font-weight="bold" font-size="8.00">ForeignKey (id)</text>
<text text-anchor="start" x="205.75" y="-213.96" font-family="Roboto" font-size="8.00"> &#160;&#160;&#160;&#160;&#160;</text>
<text text-anchor="start" x="27" y="-200.96" font-family="Roboto" font-size="8.00"> &#160;&#160;&#160;&#160;&#160;</text>
<text text-anchor="start" x="40.5" y="-200.96" font-family="Roboto" font-weight="bold" font-size="8.00">Pay frequency</text>
<text text-anchor="start" x="96.75" y="-200.96" font-family="Roboto" font-size="8.00"> &#160;&#160;&#160;&#160;&#160;</text>
<text text-anchor="start" x="130.75" y="-200.96" font-family="Roboto" font-size="8.00"> &#160;&#160;&#160;&#160;&#160;</text>
<text text-anchor="start" x="144.25" y="-200.96" font-family="Roboto" font-weight="bold" font-size="8.00">ForeignKey (id)</text>
<text text-anchor="start" x="205.75" y="-200.96" font-family="Roboto" font-size="8.00"> &#160;&#160;&#160;&#160;&#160;</text>
<text text-anchor="start" x="27" y="-187.96" font-family="Roboto" font-size="8.00"> &#160;&#160;&#160;&#160;&#160;</text>
<text text-anchor="start" x="40.5" y="-187.96" font-family="Roboto" font-weight="bold" font-size="8.00">User</text>
<text text-anchor="start" x="58.5" y="-187.96" font-family="Roboto" font-size="8.00"> &#160;&#160;&#160;&#160;&#160;</text>
<text text-anchor="start" x="130.75" y="-187.96" font-family="Roboto" font-size="8.00"> &#160;&#160;&#160;&#160;&#160;</text>
<text text-anchor="start" x="144.25" y="-187.96" font-family="Roboto" font-weight="bold" font-size="8.00">OneToOneField (id)</text>
<text text-anchor="start" x="220" y="-187.96" font-family="Roboto" font-size="8.00"> &#160;&#160;&#160;&#160;&#160;</text>
<text text-anchor="start" x="27" y="-174.96" font-family="Roboto" font-size="8.00"> &#160;&#160;&#160;&#160;&#160;</text>
<text text-anchor="start" x="40.5" y="-174.96" font-family="Roboto" font-weight="bold" font-size="8.00">Year of experience</text>
<text text-anchor="start" x="113.25" y="-174.96" font-family="Roboto" font-size="8.00"> &#160;&#160;&#160;&#160;&#160;</text>
<text text-anchor="start" x="130.75" y="-174.96" font-family="Roboto" font-size="8.00"> &#160;&#160;&#160;&#160;&#160;</text>
<text text-anchor="start" x="144.25" y="-174.96" font-family="Roboto" font-weight="bold" font-size="8.00">ForeignKey (id)</text>
<text text-anchor="start" x="205.75" y="-174.96" font-family="Roboto" font-size="8.00"> &#160;&#160;&#160;&#160;&#160;</text>
<text text-anchor="start" x="27" y="-161.96" font-family="Roboto" font-size="8.00"> &#160;&#160;&#160;&#160;&#160;</text>
<text text-anchor="start" x="40.5" y="-161.96" font-family="Roboto" font-size="8.00" fill="#7b7b7b">Created at</text>
<text text-anchor="start" x="78.75" y="-161.96" font-family="Roboto" font-size="8.00"> &#160;&#160;&#160;&#160;&#160;</text>
<text text-anchor="start" x="130.75" y="-161.96" font-family="Roboto" font-size="8.00"> &#160;&#160;&#160;&#160;&#160;</text>
<text text-anchor="start" x="144.25" y="-161.96" font-family="Roboto" font-size="8.00" fill="#7b7b7b">DateTimeField</text>
<text text-anchor="start" x="196" y="-161.96" font-family="Roboto" font-size="8.00"> &#160;&#160;&#160;&#160;&#160;</text>
<text text-anchor="start" x="27" y="-148.96" font-family="Roboto" font-size="8.00"> &#160;&#160;&#160;&#160;&#160;</text>
<text text-anchor="start" x="40.5" y="-148.96" font-family="Roboto" font-size="8.00">Pto balance</text>
<text text-anchor="start" x="82.5" y="-148.96" font-family="Roboto" font-size="8.00"> &#160;&#160;&#160;&#160;&#160;</text>
<text text-anchor="start" x="130.75" y="-148.96" font-family="Roboto" font-size="8.00"> &#160;&#160;&#160;&#160;&#160;</text>
<text text-anchor="start" x="144.25" y="-148.96" font-family="Roboto" font-size="8.00">DecimalField</text>
<text text-anchor="start" x="190" y="-148.96" font-family="Roboto" font-size="8.00"> &#160;&#160;&#160;&#160;&#160;</text>
<text text-anchor="start" x="27" y="-135.96" font-family="Roboto" font-size="8.00"> &#160;&#160;&#160;&#160;&#160;</text>
<text text-anchor="start" x="40.5" y="-135.96" font-family="Roboto" font-size="8.00" fill="#7b7b7b">Updated at</text>
<text text-anchor="start" x="80.25" y="-135.96" font-family="Roboto" font-size="8.00"> &#160;&#160;&#160;&#160;&#160;</text>
<text text-anchor="start" x="130.75" y="-135.96" font-family="Roboto" font-size="8.00"> &#160;&#160;&#160;&#160;&#160;</text>
<text text-anchor="start" x="144.25" y="-135.96" font-family="Roboto" font-size="8.00" fill="#7b7b7b">DateTimeField</text>
<text text-anchor="start" x="196" y="-135.96" font-family="Roboto" font-size="8.00"> &#160;&#160;&#160;&#160;&#160;</text>
<polygon fill="none" stroke="black" points="24,-130.56 24,-270.81 236.5,-270.81 236.5,-130.56 24,-130.56"/>
</g>
<!-- accuralrates_models_AccrualRates -->
<g id="node2" class="node">
<title>accuralrates_models_AccrualRates</title>
<polygon fill="white" stroke="none" points="419.38,-232.06 419.38,-359.31 613.88,-359.31 613.88,-232.06 419.38,-232.06"/>
<polygon fill="#1b563f" stroke="none" points="420.38,-337.06 420.38,-358.31 612.88,-358.31 612.88,-337.06 420.38,-337.06"/>
<text text-anchor="start" x="461.88" y="-344.81" font-family="Roboto" font-size="8.00"> &#160;&#160;&#160;&#160;&#160;</text>
<text text-anchor="start" x="475.38" y="-344.81" font-family="Roboto" font-weight="bold" font-size="10.00" fill="white"> &#160;&#160;&#160;&#160;&#160;Accrual Rate &#160;&#160;&#160;&#160;&#160;</text>
<text text-anchor="start" x="422.38" y="-328.46" font-family="Roboto" font-size="8.00"> &#160;&#160;&#160;&#160;&#160;</text>
<text text-anchor="start" x="435.88" y="-328.46" font-family="Roboto" font-weight="bold" font-size="8.00">ID</text>
<text text-anchor="start" x="444.12" y="-328.46" font-family="Roboto" font-size="8.00"> &#160;&#160;&#160;&#160;&#160;</text>
<text text-anchor="start" x="522.38" y="-328.46" font-family="Roboto" font-size="8.00"> &#160;&#160;&#160;&#160;&#160;</text>
<text text-anchor="start" x="535.88" y="-328.46" font-family="Roboto" font-weight="bold" font-size="8.00">BigAutoField</text>
<text text-anchor="start" x="588.38" y="-328.46" font-family="Roboto" font-size="8.00"> &#160;&#160;&#160;&#160;&#160;</text>
<text text-anchor="start" x="422.38" y="-315.46" font-family="Roboto" font-size="8.00"> &#160;&#160;&#160;&#160;&#160;</text>
<text text-anchor="start" x="435.88" y="-315.46" font-family="Roboto" font-weight="bold" font-size="8.00">Employee type</text>
<text text-anchor="start" x="493.62" y="-315.46" font-family="Roboto" font-size="8.00"> &#160;&#160;&#160;&#160;&#160;</text>
<text text-anchor="start" x="522.38" y="-315.46" font-family="Roboto" font-size="8.00"> &#160;&#160;&#160;&#160;&#160;</text>
<text text-anchor="start" x="535.88" y="-315.46" font-family="Roboto" font-weight="bold" font-size="8.00">ForeignKey (id)</text>
<text text-anchor="start" x="597.38" y="-315.46" font-family="Roboto" font-size="8.00"> &#160;&#160;&#160;&#160;&#160;</text>
<text text-anchor="start" x="422.38" y="-302.46" font-family="Roboto" font-size="8.00"> &#160;&#160;&#160;&#160;&#160;</text>
<text text-anchor="start" x="435.88" y="-302.46" font-family="Roboto" font-weight="bold" font-size="8.00">Pay frequency</text>
<text text-anchor="start" x="492.12" y="-302.46" font-family="Roboto" font-size="8.00"> &#160;&#160;&#160;&#160;&#160;</text>
<text text-anchor="start" x="522.38" y="-302.46" font-family="Roboto" font-size="8.00"> &#160;&#160;&#160;&#160;&#160;</text>
<text text-anchor="start" x="535.88" y="-302.46" font-family="Roboto" font-weight="bold" font-size="8.00">ForeignKey (id)</text>
<text text-anchor="start" x="597.38" y="-302.46" font-family="Roboto" font-size="8.00"> &#160;&#160;&#160;&#160;&#160;</text>
<text text-anchor="start" x="422.38" y="-289.46" font-family="Roboto" font-size="8.00"> &#160;&#160;&#160;&#160;&#160;</text>
<text text-anchor="start" x="435.88" y="-289.46" font-family="Roboto" font-size="8.00">Accrual rate</text>
<text text-anchor="start" x="478.62" y="-289.46" font-family="Roboto" font-size="8.00"> &#160;&#160;&#160;&#160;&#160;</text>
<text text-anchor="start" x="522.38" y="-289.46" font-family="Roboto" font-size="8.00"> &#160;&#160;&#160;&#160;&#160;</text>
<text text-anchor="start" x="535.88" y="-289.46" font-family="Roboto" font-size="8.00">DecimalField</text>
<text text-anchor="start" x="581.62" y="-289.46" font-family="Roboto" font-size="8.00"> &#160;&#160;&#160;&#160;&#160;</text>
<text text-anchor="start" x="422.38" y="-276.46" font-family="Roboto" font-size="8.00"> &#160;&#160;&#160;&#160;&#160;</text>
<text text-anchor="start" x="435.88" y="-276.46" font-family="Roboto" font-size="8.00">Annual accrual rate</text>
<text text-anchor="start" x="504.88" y="-276.46" font-family="Roboto" font-size="8.00"> &#160;&#160;&#160;&#160;&#160;</text>
<text text-anchor="start" x="522.38" y="-276.46" font-family="Roboto" font-size="8.00"> &#160;&#160;&#160;&#160;&#160;</text>
<text text-anchor="start" x="535.88" y="-276.46" font-family="Roboto" font-size="8.00">DecimalField</text>
<text text-anchor="start" x="581.62" y="-276.46" font-family="Roboto" font-size="8.00"> &#160;&#160;&#160;&#160;&#160;</text>
<text text-anchor="start" x="422.38" y="-263.46" font-family="Roboto" font-size="8.00"> &#160;&#160;&#160;&#160;&#160;</text>
<text text-anchor="start" x="435.88" y="-263.46" font-family="Roboto" font-size="8.00" fill="#7b7b7b">Created at</text>
<text text-anchor="start" x="474.12" y="-263.46" font-family="Roboto" font-size="8.00"> &#160;&#160;&#160;&#160;&#160;</text>
<text text-anchor="start" x="522.38" y="-263.46" font-family="Roboto" font-size="8.00"> &#160;&#160;&#160;&#160;&#160;</text>
<text text-anchor="start" x="535.88" y="-263.46" font-family="Roboto" font-size="8.00" fill="#7b7b7b">DateTimeField</text>
<text text-anchor="start" x="587.62" y="-263.46" font-family="Roboto" font-size="8.00"> &#160;&#160;&#160;&#160;&#160;</text>
<text text-anchor="start" x="422.38" y="-250.46" font-family="Roboto" font-size="8.00"> &#160;&#160;&#160;&#160;&#160;</text>
<text text-anchor="start" x="435.88" y="-250.46" font-family="Roboto" font-size="8.00" fill="#7b7b7b">Updated at</text>
<text text-anchor="start" x="475.62" y="-250.46" font-family="Roboto" font-size="8.00"> &#160;&#160;&#160;&#160;&#160;</text>
<text text-anchor="start" x="522.38" y="-250.46" font-family="Roboto" font-size="8.00"> &#160;&#160;&#160;&#160;&#160;</text>
<text text-anchor="start" x="535.88" y="-250.46" font-family="Roboto" font-size="8.00" fill="#7b7b7b">DateTimeField</text>
<text text-anchor="start" x="587.62" y="-250.46" font-family="Roboto" font-size="8.00"> &#160;&#160;&#160;&#160;&#160;</text>
<text text-anchor="start" x="422.38" y="-237.46" font-family="Roboto" font-size="8.00"> &#160;&#160;&#160;&#160;&#160;</text>
<text text-anchor="start" x="435.88" y="-237.46" font-family="Roboto" font-size="8.00">Year of experience</text>
<text text-anchor="start" x="502.62" y="-237.46" font-family="Roboto" font-size="8.00"> &#160;&#160;&#160;&#160;&#160;</text>
<text text-anchor="start" x="522.38" y="-237.46" font-family="Roboto" font-size="8.00"> &#160;&#160;&#160;&#160;&#160;</text>
<text text-anchor="start" x="535.88" y="-237.46" font-family="Roboto" font-size="8.00">IntegerField</text>
<text text-anchor="start" x="578.62" y="-237.46" font-family="Roboto" font-size="8.00"> &#160;&#160;&#160;&#160;&#160;</text>
<polygon fill="none" stroke="black" points="419.38,-232.06 419.38,-359.31 613.88,-359.31 613.88,-232.06 419.38,-232.06"/>
</g>
<!-- ptobalance_models_PTOBalance&#45;&gt;accuralrates_models_AccrualRates -->
<g id="edge5" class="edge">
<title>ptobalance_models_PTOBalance&#45;&gt;accuralrates_models_AccrualRates</title>
<path fill="none" stroke="black" d="M252.93,-230.76C303.87,-243.35 362.48,-257.84 411.39,-269.93"/>
<ellipse fill="black" stroke="black" cx="248.86" cy="-229.76" rx="4" ry="4"/>
<text text-anchor="middle" x="324" y="-263.65" font-family="Roboto" font-size="8.00"> Accrual rate (Pto balances)</text>
</g>
<!-- employeetype_models_EmployeeType -->
<g id="node3" class="node">
<title>employeetype_models_EmployeeType</title>
<polygon fill="white" stroke="none" points="785.38,-358.06 785.38,-433.31 941.62,-433.31 941.62,-358.06 785.38,-358.06"/>
<polygon fill="#1b563f" stroke="none" points="786.38,-411.06 786.38,-432.31 940.62,-432.31 940.62,-411.06 786.38,-411.06"/>
<text text-anchor="start" x="805" y="-418.81" font-family="Roboto" font-size="8.00"> &#160;&#160;&#160;&#160;&#160;</text>
<text text-anchor="start" x="818.5" y="-418.81" font-family="Roboto" font-weight="bold" font-size="10.00" fill="white"> &#160;&#160;&#160;&#160;&#160;employee type &#160;&#160;&#160;&#160;&#160;</text>
<text text-anchor="start" x="788.38" y="-402.46" font-family="Roboto" font-size="8.00"> &#160;&#160;&#160;&#160;&#160;</text>
<text text-anchor="start" x="801.88" y="-402.46" font-family="Roboto" font-weight="bold" font-size="8.00">ID</text>
<text text-anchor="start" x="810.12" y="-402.46" font-family="Roboto" font-size="8.00"> &#160;&#160;&#160;&#160;&#160;</text>
<text text-anchor="start" x="859.12" y="-402.46" font-family="Roboto" font-size="8.00"> &#160;&#160;&#160;&#160;&#160;</text>
<text text-anchor="start" x="872.62" y="-402.46" font-family="Roboto" font-weight="bold" font-size="8.00">BigAutoField</text>
<text text-anchor="start" x="925.12" y="-402.46" font-family="Roboto" font-size="8.00"> &#160;&#160;&#160;&#160;&#160;</text>
<text text-anchor="start" x="788.38" y="-389.46" font-family="Roboto" font-size="8.00"> &#160;&#160;&#160;&#160;&#160;</text>
<text text-anchor="start" x="801.88" y="-389.46" font-family="Roboto" font-size="8.00" fill="#7b7b7b">Created at</text>
<text text-anchor="start" x="840.12" y="-389.46" font-family="Roboto" font-size="8.00"> &#160;&#160;&#160;&#160;&#160;</text>
<text text-anchor="start" x="859.12" y="-389.46" font-family="Roboto" font-size="8.00"> &#160;&#160;&#160;&#160;&#160;</text>
<text text-anchor="start" x="872.62" y="-389.46" font-family="Roboto" font-size="8.00" fill="#7b7b7b">DateTimeField</text>
<text text-anchor="start" x="924.38" y="-389.46" font-family="Roboto" font-size="8.00"> &#160;&#160;&#160;&#160;&#160;</text>
<text text-anchor="start" x="788.38" y="-376.46" font-family="Roboto" font-size="8.00"> &#160;&#160;&#160;&#160;&#160;</text>
<text text-anchor="start" x="801.88" y="-376.46" font-family="Roboto" font-size="8.00">Name</text>
<text text-anchor="start" x="823.62" y="-376.46" font-family="Roboto" font-size="8.00"> &#160;&#160;&#160;&#160;&#160;</text>
<text text-anchor="start" x="859.12" y="-376.46" font-family="Roboto" font-size="8.00"> &#160;&#160;&#160;&#160;&#160;</text>
<text text-anchor="start" x="872.62" y="-376.46" font-family="Roboto" font-size="8.00">CharField</text>
<text text-anchor="start" x="907.88" y="-376.46" font-family="Roboto" font-size="8.00"> &#160;&#160;&#160;&#160;&#160;</text>
<text text-anchor="start" x="788.38" y="-363.46" font-family="Roboto" font-size="8.00"> &#160;&#160;&#160;&#160;&#160;</text>
<text text-anchor="start" x="801.88" y="-363.46" font-family="Roboto" font-size="8.00" fill="#7b7b7b">Updated at</text>
<text text-anchor="start" x="841.62" y="-363.46" font-family="Roboto" font-size="8.00"> &#160;&#160;&#160;&#160;&#160;</text>
<text text-anchor="start" x="859.12" y="-363.46" font-family="Roboto" font-size="8.00"> &#160;&#160;&#160;&#160;&#160;</text>
<text text-anchor="start" x="872.62" y="-363.46" font-family="Roboto" font-size="8.00" fill="#7b7b7b">DateTimeField</text>
<text text-anchor="start" x="924.38" y="-363.46" font-family="Roboto" font-size="8.00"> &#160;&#160;&#160;&#160;&#160;</text>
<polygon fill="none" stroke="black" points="785.38,-358.06 785.38,-433.31 941.62,-433.31 941.62,-358.06 785.38,-358.06"/>
</g>
<!-- ptobalance_models_PTOBalance&#45;&gt;employeetype_models_EmployeeType -->
<g id="edge2" class="edge">
<title>ptobalance_models_PTOBalance&#45;&gt;employeetype_models_EmployeeType</title>
<path fill="none" stroke="black" d="M222.02,-280.18C282.4,-331.02 357.37,-389.78 395.5,-402.69 523.19,-445.9 681.98,-430.04 777.63,-413.6"/>
<ellipse fill="black" stroke="black" cx="218.92" cy="-277.56" rx="4" ry="4"/>
<text text-anchor="middle" x="516.62" y="-431.95" font-family="Roboto" font-size="8.00"> Employee type (Pto balances)</text>
</g>
<!-- payfrequency_models_Pay_Frequency -->
<g id="node4" class="node">
<title>payfrequency_models_Pay_Frequency</title>
<polygon fill="white" stroke="none" points="785.38,-194.06 785.38,-269.31 941.62,-269.31 941.62,-194.06 785.38,-194.06"/>
<polygon fill="#1b563f" stroke="none" points="786.38,-247.06 786.38,-268.31 940.62,-268.31 940.62,-247.06 786.38,-247.06"/>
<text text-anchor="start" x="804.25" y="-254.81" font-family="Roboto" font-size="8.00"> &#160;&#160;&#160;&#160;&#160;</text>
<text text-anchor="start" x="817.75" y="-254.81" font-family="Roboto" font-weight="bold" font-size="10.00" fill="white"> &#160;&#160;&#160;&#160;&#160;Pay Frequency &#160;&#160;&#160;&#160;&#160;</text>
<text text-anchor="start" x="788.38" y="-238.46" font-family="Roboto" font-size="8.00"> &#160;&#160;&#160;&#160;&#160;</text>
<text text-anchor="start" x="801.88" y="-238.46" font-family="Roboto" font-weight="bold" font-size="8.00">ID</text>
<text text-anchor="start" x="810.12" y="-238.46" font-family="Roboto" font-size="8.00"> &#160;&#160;&#160;&#160;&#160;</text>
<text text-anchor="start" x="859.12" y="-238.46" font-family="Roboto" font-size="8.00"> &#160;&#160;&#160;&#160;&#160;</text>
<text text-anchor="start" x="872.62" y="-238.46" font-family="Roboto" font-weight="bold" font-size="8.00">BigAutoField</text>
<text text-anchor="start" x="925.12" y="-238.46" font-family="Roboto" font-size="8.00"> &#160;&#160;&#160;&#160;&#160;</text>
<text text-anchor="start" x="788.38" y="-225.46" font-family="Roboto" font-size="8.00"> &#160;&#160;&#160;&#160;&#160;</text>
<text text-anchor="start" x="801.88" y="-225.46" font-family="Roboto" font-size="8.00" fill="#7b7b7b">Created at</text>
<text text-anchor="start" x="840.12" y="-225.46" font-family="Roboto" font-size="8.00"> &#160;&#160;&#160;&#160;&#160;</text>
<text text-anchor="start" x="859.12" y="-225.46" font-family="Roboto" font-size="8.00"> &#160;&#160;&#160;&#160;&#160;</text>
<text text-anchor="start" x="872.62" y="-225.46" font-family="Roboto" font-size="8.00" fill="#7b7b7b">DateTimeField</text>
<text text-anchor="start" x="924.38" y="-225.46" font-family="Roboto" font-size="8.00"> &#160;&#160;&#160;&#160;&#160;</text>
<text text-anchor="start" x="788.38" y="-212.46" font-family="Roboto" font-size="8.00"> &#160;&#160;&#160;&#160;&#160;</text>
<text text-anchor="start" x="801.88" y="-212.46" font-family="Roboto" font-size="8.00">Frequency</text>
<text text-anchor="start" x="840.12" y="-212.46" font-family="Roboto" font-size="8.00"> &#160;&#160;&#160;&#160;&#160;</text>
<text text-anchor="start" x="859.12" y="-212.46" font-family="Roboto" font-size="8.00"> &#160;&#160;&#160;&#160;&#160;</text>
<text text-anchor="start" x="872.62" y="-212.46" font-family="Roboto" font-size="8.00">CharField</text>
<text text-anchor="start" x="907.88" y="-212.46" font-family="Roboto" font-size="8.00"> &#160;&#160;&#160;&#160;&#160;</text>
<text text-anchor="start" x="788.38" y="-199.46" font-family="Roboto" font-size="8.00"> &#160;&#160;&#160;&#160;&#160;</text>
<text text-anchor="start" x="801.88" y="-199.46" font-family="Roboto" font-size="8.00" fill="#7b7b7b">Updated at</text>
<text text-anchor="start" x="841.62" y="-199.46" font-family="Roboto" font-size="8.00"> &#160;&#160;&#160;&#160;&#160;</text>
<text text-anchor="start" x="859.12" y="-199.46" font-family="Roboto" font-size="8.00"> &#160;&#160;&#160;&#160;&#160;</text>
<text text-anchor="start" x="872.62" y="-199.46" font-family="Roboto" font-size="8.00" fill="#7b7b7b">DateTimeField</text>
<text text-anchor="start" x="924.38" y="-199.46" font-family="Roboto" font-size="8.00"> &#160;&#160;&#160;&#160;&#160;</text>
<polygon fill="none" stroke="black" points="785.38,-194.06 785.38,-269.31 941.62,-269.31 941.62,-194.06 785.38,-194.06"/>
</g>
<!-- ptobalance_models_PTOBalance&#45;&gt;payfrequency_models_Pay_Frequency -->
<g id="edge3" class="edge">
<title>ptobalance_models_PTOBalance&#45;&gt;payfrequency_models_Pay_Frequency</title>
<path fill="none" stroke="black" d="M253.13,-198.76C355.8,-197.94 506.51,-198.63 637.75,-206.69 684.09,-209.53 735.57,-215.08 777.56,-220.23"/>
<ellipse fill="black" stroke="black" cx="248.77" cy="-198.79" rx="4" ry="4"/>
<text text-anchor="middle" x="516.62" y="-208.09" font-family="Roboto" font-size="8.00"> Pay frequency (Pto balances)</text>
</g>
<!-- yearofexperience_models_YearOfExperience -->
<g id="node5" class="node">
<title>yearofexperience_models_YearOfExperience</title>
<polygon fill="white" stroke="none" points="411.5,-47.56 411.5,-135.81 621.75,-135.81 621.75,-47.56 411.5,-47.56"/>
<polygon fill="#1b563f" stroke="none" points="412.5,-113.56 412.5,-134.81 620.75,-134.81 620.75,-113.56 412.5,-113.56"/>
<text text-anchor="start" x="449.5" y="-121.31" font-family="Roboto" font-size="8.00"> &#160;&#160;&#160;&#160;&#160;</text>
<text text-anchor="start" x="463" y="-121.31" font-family="Roboto" font-weight="bold" font-size="10.00" fill="white"> &#160;&#160;&#160;&#160;&#160;year of experience &#160;&#160;&#160;&#160;&#160;</text>
<text text-anchor="start" x="414.5" y="-104.96" font-family="Roboto" font-size="8.00"> &#160;&#160;&#160;&#160;&#160;</text>
<text text-anchor="start" x="428" y="-104.96" font-family="Roboto" font-weight="bold" font-size="8.00">ID</text>
<text text-anchor="start" x="436.25" y="-104.96" font-family="Roboto" font-size="8.00"> &#160;&#160;&#160;&#160;&#160;</text>
<text text-anchor="start" x="516" y="-104.96" font-family="Roboto" font-size="8.00"> &#160;&#160;&#160;&#160;&#160;</text>
<text text-anchor="start" x="529.5" y="-104.96" font-family="Roboto" font-weight="bold" font-size="8.00">BigAutoField</text>
<text text-anchor="start" x="582" y="-104.96" font-family="Roboto" font-size="8.00"> &#160;&#160;&#160;&#160;&#160;</text>
<text text-anchor="start" x="414.5" y="-91.96" font-family="Roboto" font-size="8.00"> &#160;&#160;&#160;&#160;&#160;</text>
<text text-anchor="start" x="428" y="-91.96" font-family="Roboto" font-weight="bold" font-size="8.00">User</text>
<text text-anchor="start" x="446" y="-91.96" font-family="Roboto" font-size="8.00"> &#160;&#160;&#160;&#160;&#160;</text>
<text text-anchor="start" x="516" y="-91.96" font-family="Roboto" font-size="8.00"> &#160;&#160;&#160;&#160;&#160;</text>
<text text-anchor="start" x="529.5" y="-91.96" font-family="Roboto" font-weight="bold" font-size="8.00">OneToOneField (id)</text>
<text text-anchor="start" x="605.25" y="-91.96" font-family="Roboto" font-size="8.00"> &#160;&#160;&#160;&#160;&#160;</text>
<text text-anchor="start" x="414.5" y="-78.96" font-family="Roboto" font-size="8.00"> &#160;&#160;&#160;&#160;&#160;</text>
<text text-anchor="start" x="428" y="-78.96" font-family="Roboto" font-size="8.00" fill="#7b7b7b">Created at</text>
<text text-anchor="start" x="466.25" y="-78.96" font-family="Roboto" font-size="8.00"> &#160;&#160;&#160;&#160;&#160;</text>
<text text-anchor="start" x="516" y="-78.96" font-family="Roboto" font-size="8.00"> &#160;&#160;&#160;&#160;&#160;</text>
<text text-anchor="start" x="529.5" y="-78.96" font-family="Roboto" font-size="8.00" fill="#7b7b7b">DateTimeField</text>
<text text-anchor="start" x="581.25" y="-78.96" font-family="Roboto" font-size="8.00"> &#160;&#160;&#160;&#160;&#160;</text>
<text text-anchor="start" x="414.5" y="-65.96" font-family="Roboto" font-size="8.00"> &#160;&#160;&#160;&#160;&#160;</text>
<text text-anchor="start" x="428" y="-65.96" font-family="Roboto" font-size="8.00" fill="#7b7b7b">Updated at</text>
<text text-anchor="start" x="467.75" y="-65.96" font-family="Roboto" font-size="8.00"> &#160;&#160;&#160;&#160;&#160;</text>
<text text-anchor="start" x="516" y="-65.96" font-family="Roboto" font-size="8.00"> &#160;&#160;&#160;&#160;&#160;</text>
<text text-anchor="start" x="529.5" y="-65.96" font-family="Roboto" font-size="8.00" fill="#7b7b7b">DateTimeField</text>
<text text-anchor="start" x="581.25" y="-65.96" font-family="Roboto" font-size="8.00"> &#160;&#160;&#160;&#160;&#160;</text>
<text text-anchor="start" x="414.5" y="-52.96" font-family="Roboto" font-size="8.00"> &#160;&#160;&#160;&#160;&#160;</text>
<text text-anchor="start" x="428" y="-52.96" font-family="Roboto" font-size="8.00">Years of experience</text>
<text text-anchor="start" x="498.5" y="-52.96" font-family="Roboto" font-size="8.00"> &#160;&#160;&#160;&#160;&#160;</text>
<text text-anchor="start" x="516" y="-52.96" font-family="Roboto" font-size="8.00"> &#160;&#160;&#160;&#160;&#160;</text>
<text text-anchor="start" x="529.5" y="-52.96" font-family="Roboto" font-size="8.00">DecimalField</text>
<text text-anchor="start" x="575.25" y="-52.96" font-family="Roboto" font-size="8.00"> &#160;&#160;&#160;&#160;&#160;</text>
<polygon fill="none" stroke="black" points="411.5,-47.56 411.5,-135.81 621.75,-135.81 621.75,-47.56 411.5,-47.56"/>
</g>
<!-- ptobalance_models_PTOBalance&#45;&gt;yearofexperience_models_YearOfExperience -->
<g id="edge4" class="edge">
<title>ptobalance_models_PTOBalance&#45;&gt;yearofexperience_models_YearOfExperience</title>
<path fill="none" stroke="black" d="M253.1,-166.13C301.29,-152.47 356.33,-136.86 403.52,-123.48"/>
<ellipse fill="black" stroke="black" cx="248.83" cy="-167.34" rx="4" ry="4"/>
<text text-anchor="middle" x="324" y="-163.72" font-family="Roboto" font-size="8.00"> Year of experience (Pto balances)</text>
</g>
<!-- django_contrib_auth_models_User -->
<g id="node6" class="node">
<title>django_contrib_auth_models_User</title>
<polygon fill="white" stroke="none" points="842.25,-33.31 842.25,-54.06 884.75,-54.06 884.75,-33.31 842.25,-33.31"/>
<polygon fill="#1b563f" stroke="none" points="842.25,-33.31 842.25,-54.06 884.75,-54.06 884.75,-33.31 842.25,-33.31"/>
<text text-anchor="start" x="846.25" y="-39.66" font-family="Roboto" font-size="8.00"> &#160;</text>
<text text-anchor="start" x="850.75" y="-39.66" font-family="Roboto" font-size="12.00" fill="white">User</text>
<text text-anchor="start" x="876.25" y="-39.66" font-family="Roboto" font-size="8.00"> &#160;</text>
</g>
<!-- ptobalance_models_PTOBalance&#45;&gt;django_contrib_auth_models_User -->
<g id="edge1" class="edge">
<title>ptobalance_models_PTOBalance&#45;&gt;django_contrib_auth_models_User</title>
<path fill="none" stroke="black" d="M213.17,-126.74C262.24,-87.52 328.05,-43.29 395.5,-22.69 555.4,26.14 760.35,-17.21 834.31,-36.01"/>
<text text-anchor="middle" x="516.62" y="-24.09" font-family="Roboto" font-size="8.00"> User (Pto balance)</text>
</g>
<!-- accuralrates_models_AccrualRates&#45;&gt;employeetype_models_EmployeeType -->
<g id="edge6" class="edge">
<title>accuralrates_models_AccrualRates&#45;&gt;employeetype_models_EmployeeType</title>
<path fill="none" stroke="black" d="M630.13,-328.31C678.09,-342.22 733.13,-358.17 777.59,-371.07"/>
<ellipse fill="black" stroke="black" cx="625.89" cy="-327.08" rx="4" ry="4"/>
<text text-anchor="middle" x="702.5" y="-364.74" font-family="Roboto" font-size="8.00"> Employee type (Accrual rates)</text>
</g>
<!-- accuralrates_models_AccrualRates&#45;&gt;payfrequency_models_Pay_Frequency -->
<g id="edge7" class="edge">
<title>accuralrates_models_AccrualRates&#45;&gt;payfrequency_models_Pay_Frequency</title>
<path fill="none" stroke="black" d="M630.13,-274.81C678.09,-265.91 733.13,-255.69 777.59,-247.44"/>
<ellipse fill="black" stroke="black" cx="625.99" cy="-275.58" rx="4" ry="4"/>
<text text-anchor="middle" x="702.5" y="-272.7" font-family="Roboto" font-size="8.00"> Pay frequency (Accrual rates)</text>
</g>
<!-- yearofexperience_models_YearOfExperience&#45;&gt;django_contrib_auth_models_User -->
<g id="edge8" class="edge">
<title>yearofexperience_models_YearOfExperience&#45;&gt;django_contrib_auth_models_User</title>
<path fill="none" stroke="black" d="M629.6,-76.1C701.78,-66.06 790.15,-53.76 834.41,-47.6"/>
<text text-anchor="middle" x="702.5" y="-74.8" font-family="Roboto" font-size="8.00"> User (Experience)</text>
</g>
<!-- \n\n\n -->
<g id="node7" class="node">
<title>\n\n\n</title>
</g>
</g>
</svg>
