<?xml version="1.0" encoding="UTF-8" standalone="no"?>
<!DOCTYPE svg PUBLIC "-//W3C//DTD SVG 1.1//EN"
 "http://www.w3.org/Graphics/SVG/1.1/DTD/svg11.dtd">
<!-- Generated by graphviz version 12.2.1 (20241206.2353)
 -->
<!-- Title: model_graph Pages: 1 -->
<svg width="277pt" height="277pt"
 viewBox="0.00 0.00 276.75 277.00" xmlns="http://www.w3.org/2000/svg" xmlns:xlink="http://www.w3.org/1999/xlink">
<g id="graph0" class="graph" transform="scale(1 1) rotate(0) translate(4 273)">
<title>model_graph</title>
<polygon fill="white" stroke="none" points="-4,4 -4,-273 272.75,-273 272.75,4 -4,4"/>
<g id="clust1" class="cluster">
<title>cluster_sickpolicy</title>
<path fill="none" stroke="#698b22" d="M20,-8C20,-8 248.75,-8 248.75,-8 254.75,-8 260.75,-14 260.75,-20 260.75,-20 260.75,-249 260.75,-249 260.75,-255 254.75,-261 248.75,-261 248.75,-261 20,-261 20,-261 14,-261 8,-255 8,-249 8,-249 8,-20 8,-20 8,-14 14,-8 20,-8"/>
<text text-anchor="start" x="58.25" y="-244.5" font-family="Roboto" font-size="8.00"> &#160;&#160;&#160;&#160;&#160;&#160;&#160;&#160;&#160;</text>
<text text-anchor="start" x="80.75" y="-244.5" font-family="Roboto" font-size="10.00"> &#160;&#160;&#160;&#160;&#160;&#160;&#160;&#160;&#160;</text>
<text text-anchor="start" x="110.75" y="-244.5" font-family="Roboto" font-weight="bold" font-size="10.00">sickpolicy</text>
<text text-anchor="start" x="158" y="-244.5" font-family="Roboto" font-size="10.00"> &#160;&#160;&#160;&#160;&#160;&#160;&#160;&#160;&#160;</text>
<text text-anchor="start" x="188" y="-244.5" font-family="Roboto" font-size="8.00"> &#160;&#160;&#160;&#160;&#160;&#160;&#160;&#160;&#160;</text>
</g>
<!-- sickpolicy_models_SickLeaveProratedValue -->
<g id="node1" class="node">
<title>sickpolicy_models_SickLeaveProratedValue</title>
<polygon fill="white" stroke="none" points="24,-19.88 24,-108.12 244.75,-108.12 244.75,-19.88 24,-19.88"/>
<polygon fill="#1b563f" stroke="none" points="25,-85.88 25,-107.12 243.75,-107.12 243.75,-85.88 25,-85.88"/>
<text text-anchor="start" x="48.5" y="-93.62" font-family="Roboto" font-size="8.00"> &#160;&#160;&#160;&#160;&#160;</text>
<text text-anchor="start" x="62" y="-93.62" font-family="Roboto" font-weight="bold" font-size="10.00" fill="white"> &#160;&#160;&#160;&#160;&#160;Sick Leave Prorated Value &#160;&#160;&#160;&#160;&#160;</text>
<text text-anchor="start" x="27" y="-77.28" font-family="Roboto" font-size="8.00"> &#160;&#160;&#160;&#160;&#160;</text>
<text text-anchor="start" x="40.5" y="-77.28" font-family="Roboto" font-weight="bold" font-size="8.00">ID</text>
<text text-anchor="start" x="48.75" y="-77.28" font-family="Roboto" font-size="8.00"> &#160;&#160;&#160;&#160;&#160;</text>
<text text-anchor="start" x="162.25" y="-77.28" font-family="Roboto" font-size="8.00"> &#160;&#160;&#160;&#160;&#160;</text>
<text text-anchor="start" x="175.75" y="-77.28" font-family="Roboto" font-weight="bold" font-size="8.00">BigAutoField</text>
<text text-anchor="start" x="228.25" y="-77.28" font-family="Roboto" font-size="8.00"> &#160;&#160;&#160;&#160;&#160;</text>
<text text-anchor="start" x="27" y="-64.28" font-family="Roboto" font-size="8.00"> &#160;&#160;&#160;&#160;&#160;</text>
<text text-anchor="start" x="40.5" y="-64.28" font-family="Roboto" font-size="8.00">Fte value</text>
<text text-anchor="start" x="73.5" y="-64.28" font-family="Roboto" font-size="8.00"> &#160;&#160;&#160;&#160;&#160;</text>
<text text-anchor="start" x="162.25" y="-64.28" font-family="Roboto" font-size="8.00"> &#160;&#160;&#160;&#160;&#160;</text>
<text text-anchor="start" x="175.75" y="-64.28" font-family="Roboto" font-size="8.00">DecimalField</text>
<text text-anchor="start" x="221.5" y="-64.28" font-family="Roboto" font-size="8.00"> &#160;&#160;&#160;&#160;&#160;</text>
<text text-anchor="start" x="27" y="-51.27" font-family="Roboto" font-size="8.00"> &#160;&#160;&#160;&#160;&#160;</text>
<text text-anchor="start" x="40.5" y="-51.27" font-family="Roboto" font-size="8.00">Name</text>
<text text-anchor="start" x="62.25" y="-51.27" font-family="Roboto" font-size="8.00"> &#160;&#160;&#160;&#160;&#160;</text>
<text text-anchor="start" x="162.25" y="-51.27" font-family="Roboto" font-size="8.00"> &#160;&#160;&#160;&#160;&#160;</text>
<text text-anchor="start" x="175.75" y="-51.27" font-family="Roboto" font-size="8.00">CharField</text>
<text text-anchor="start" x="211" y="-51.27" font-family="Roboto" font-size="8.00"> &#160;&#160;&#160;&#160;&#160;</text>
<text text-anchor="start" x="27" y="-38.27" font-family="Roboto" font-size="8.00"> &#160;&#160;&#160;&#160;&#160;</text>
<text text-anchor="start" x="40.5" y="-38.27" font-family="Roboto" font-size="8.00" fill="#7b7b7b">Prorated unverified sick leave</text>
<text text-anchor="start" x="144.75" y="-38.27" font-family="Roboto" font-size="8.00"> &#160;&#160;&#160;&#160;&#160;</text>
<text text-anchor="start" x="162.25" y="-38.27" font-family="Roboto" font-size="8.00"> &#160;&#160;&#160;&#160;&#160;</text>
<text text-anchor="start" x="175.75" y="-38.27" font-family="Roboto" font-size="8.00" fill="#7b7b7b">DecimalField</text>
<text text-anchor="start" x="221.5" y="-38.27" font-family="Roboto" font-size="8.00"> &#160;&#160;&#160;&#160;&#160;</text>
<text text-anchor="start" x="27" y="-25.27" font-family="Roboto" font-size="8.00"> &#160;&#160;&#160;&#160;&#160;</text>
<text text-anchor="start" x="40.5" y="-25.27" font-family="Roboto" font-size="8.00" fill="#7b7b7b">Prorated upfront verified</text>
<text text-anchor="start" x="127.5" y="-25.27" font-family="Roboto" font-size="8.00"> &#160;&#160;&#160;&#160;&#160;</text>
<text text-anchor="start" x="162.25" y="-25.27" font-family="Roboto" font-size="8.00"> &#160;&#160;&#160;&#160;&#160;</text>
<text text-anchor="start" x="175.75" y="-25.27" font-family="Roboto" font-size="8.00" fill="#7b7b7b">DecimalField</text>
<text text-anchor="start" x="221.5" y="-25.27" font-family="Roboto" font-size="8.00"> &#160;&#160;&#160;&#160;&#160;</text>
<polygon fill="none" stroke="black" points="24,-19.88 24,-108.12 244.75,-108.12 244.75,-19.88 24,-19.88"/>
</g>
<!-- sickpolicy_models_MaxSickValue -->
<g id="node2" class="node">
<title>sickpolicy_models_MaxSickValue</title>
<polygon fill="white" stroke="none" points="32.25,-133.88 32.25,-222.12 236.5,-222.12 236.5,-133.88 32.25,-133.88"/>
<polygon fill="#1b563f" stroke="none" points="33.25,-199.88 33.25,-221.12 235.5,-221.12 235.5,-199.88 33.25,-199.88"/>
<text text-anchor="start" x="40.62" y="-207.62" font-family="Roboto" font-size="8.00"> &#160;&#160;&#160;&#160;&#160;</text>
<text text-anchor="start" x="54.12" y="-207.62" font-family="Roboto" font-weight="bold" font-size="10.00" fill="white"> &#160;&#160;&#160;&#160;&#160;Maximum Sick Value (Global) &#160;&#160;&#160;&#160;&#160;</text>
<text text-anchor="start" x="35.25" y="-191.28" font-family="Roboto" font-size="8.00"> &#160;&#160;&#160;&#160;&#160;</text>
<text text-anchor="start" x="48.75" y="-191.28" font-family="Roboto" font-weight="bold" font-size="8.00">ID</text>
<text text-anchor="start" x="57" y="-191.28" font-family="Roboto" font-size="8.00"> &#160;&#160;&#160;&#160;&#160;</text>
<text text-anchor="start" x="154" y="-191.28" font-family="Roboto" font-size="8.00"> &#160;&#160;&#160;&#160;&#160;</text>
<text text-anchor="start" x="167.5" y="-191.28" font-family="Roboto" font-weight="bold" font-size="8.00">BigAutoField</text>
<text text-anchor="start" x="220" y="-191.28" font-family="Roboto" font-size="8.00"> &#160;&#160;&#160;&#160;&#160;</text>
<text text-anchor="start" x="35.25" y="-178.28" font-family="Roboto" font-size="8.00"> &#160;&#160;&#160;&#160;&#160;</text>
<text text-anchor="start" x="48.75" y="-178.28" font-family="Roboto" font-size="8.00">Accrued rate</text>
<text text-anchor="start" x="94.5" y="-178.28" font-family="Roboto" font-size="8.00"> &#160;&#160;&#160;&#160;&#160;</text>
<text text-anchor="start" x="154" y="-178.28" font-family="Roboto" font-size="8.00"> &#160;&#160;&#160;&#160;&#160;</text>
<text text-anchor="start" x="167.5" y="-178.28" font-family="Roboto" font-size="8.00">DecimalField</text>
<text text-anchor="start" x="213.25" y="-178.28" font-family="Roboto" font-size="8.00"> &#160;&#160;&#160;&#160;&#160;</text>
<text text-anchor="start" x="35.25" y="-165.28" font-family="Roboto" font-size="8.00"> &#160;&#160;&#160;&#160;&#160;</text>
<text text-anchor="start" x="48.75" y="-165.28" font-family="Roboto" font-size="8.00">Max unverified sick leave</text>
<text text-anchor="start" x="136.5" y="-165.28" font-family="Roboto" font-size="8.00"> &#160;&#160;&#160;&#160;&#160;</text>
<text text-anchor="start" x="154" y="-165.28" font-family="Roboto" font-size="8.00"> &#160;&#160;&#160;&#160;&#160;</text>
<text text-anchor="start" x="167.5" y="-165.28" font-family="Roboto" font-size="8.00">DecimalField</text>
<text text-anchor="start" x="213.25" y="-165.28" font-family="Roboto" font-size="8.00"> &#160;&#160;&#160;&#160;&#160;</text>
<text text-anchor="start" x="35.25" y="-152.28" font-family="Roboto" font-size="8.00"> &#160;&#160;&#160;&#160;&#160;</text>
<text text-anchor="start" x="48.75" y="-152.28" font-family="Roboto" font-size="8.00">Upfront verified</text>
<text text-anchor="start" x="103.5" y="-152.28" font-family="Roboto" font-size="8.00"> &#160;&#160;&#160;&#160;&#160;</text>
<text text-anchor="start" x="154" y="-152.28" font-family="Roboto" font-size="8.00"> &#160;&#160;&#160;&#160;&#160;</text>
<text text-anchor="start" x="167.5" y="-152.28" font-family="Roboto" font-size="8.00">DecimalField</text>
<text text-anchor="start" x="213.25" y="-152.28" font-family="Roboto" font-size="8.00"> &#160;&#160;&#160;&#160;&#160;</text>
<text text-anchor="start" x="35.25" y="-139.28" font-family="Roboto" font-size="8.00"> &#160;&#160;&#160;&#160;&#160;</text>
<text text-anchor="start" x="48.75" y="-139.28" font-family="Roboto" font-size="8.00">threshold FVSL</text>
<text text-anchor="start" x="104.25" y="-139.28" font-family="Roboto" font-size="8.00"> &#160;&#160;&#160;&#160;&#160;</text>
<text text-anchor="start" x="154" y="-139.28" font-family="Roboto" font-size="8.00"> &#160;&#160;&#160;&#160;&#160;</text>
<text text-anchor="start" x="167.5" y="-139.28" font-family="Roboto" font-size="8.00">DecimalField</text>
<text text-anchor="start" x="213.25" y="-139.28" font-family="Roboto" font-size="8.00"> &#160;&#160;&#160;&#160;&#160;</text>
<polygon fill="none" stroke="black" points="32.25,-133.88 32.25,-222.12 236.5,-222.12 236.5,-133.88 32.25,-133.88"/>
</g>
</g>
</svg>
