<?xml version="1.0" encoding="UTF-8" standalone="no"?>
<!DOCTYPE svg PUBLIC "-//W3C//DTD SVG 1.1//EN"
 "http://www.w3.org/Graphics/SVG/1.1/DTD/svg11.dtd">
<!-- Generated by graphviz version 12.2.1 (20241206.2353)
 -->
<!-- Title: model_graph Pages: 1 -->
<svg width="493pt" height="251pt"
 viewBox="0.00 0.00 492.50 251.00" xmlns="http://www.w3.org/2000/svg" xmlns:xlink="http://www.w3.org/1999/xlink">
<g id="graph0" class="graph" transform="scale(1 1) rotate(0) translate(4 247)">
<title>model_graph</title>
<polygon fill="white" stroke="none" points="-4,4 -4,-247 488.5,-247 488.5,4 -4,4"/>
<g id="clust1" class="cluster">
<title>cluster_timeclock</title>
<path fill="none" stroke="#698b22" d="M20,-8C20,-8 242,-8 242,-8 248,-8 254,-14 254,-20 254,-20 254,-187 254,-187 254,-193 248,-199 242,-199 242,-199 20,-199 20,-199 14,-199 8,-193 8,-187 8,-187 8,-20 8,-20 8,-14 14,-8 20,-8"/>
<text text-anchor="start" x="56" y="-182.5" font-family="Roboto" font-size="8.00"> &#160;&#160;&#160;&#160;&#160;&#160;&#160;&#160;&#160;</text>
<text text-anchor="start" x="78.5" y="-182.5" font-family="Roboto" font-size="10.00"> &#160;&#160;&#160;&#160;&#160;&#160;&#160;&#160;&#160;</text>
<text text-anchor="start" x="108.5" y="-182.5" font-family="Roboto" font-weight="bold" font-size="10.00">timeclock</text>
<text text-anchor="start" x="153.5" y="-182.5" font-family="Roboto" font-size="10.00"> &#160;&#160;&#160;&#160;&#160;&#160;&#160;&#160;&#160;</text>
<text text-anchor="start" x="183.5" y="-182.5" font-family="Roboto" font-size="8.00"> &#160;&#160;&#160;&#160;&#160;&#160;&#160;&#160;&#160;</text>
</g>
<!-- timeclock_models_Clock -->
<g id="node1" class="node">
<title>timeclock_models_Clock</title>
<polygon fill="white" stroke="none" points="24,-19.88 24,-160.12 238,-160.12 238,-19.88 24,-19.88"/>
<polygon fill="#1b563f" stroke="none" points="25,-137.88 25,-159.12 237,-159.12 237,-137.88 25,-137.88"/>
<text text-anchor="start" x="78.88" y="-145.62" font-family="Roboto" font-size="8.00"> &#160;&#160;&#160;&#160;&#160;</text>
<text text-anchor="start" x="92.38" y="-145.62" font-family="Roboto" font-weight="bold" font-size="10.00" fill="white"> &#160;&#160;&#160;&#160;&#160;Clock Entry &#160;&#160;&#160;&#160;&#160;</text>
<text text-anchor="start" x="27" y="-129.28" font-family="Roboto" font-size="8.00"> &#160;&#160;&#160;&#160;&#160;</text>
<text text-anchor="start" x="40.5" y="-129.28" font-family="Roboto" font-weight="bold" font-size="8.00">ID</text>
<text text-anchor="start" x="48.75" y="-129.28" font-family="Roboto" font-size="8.00"> &#160;&#160;&#160;&#160;&#160;</text>
<text text-anchor="start" x="146.5" y="-129.28" font-family="Roboto" font-size="8.00"> &#160;&#160;&#160;&#160;&#160;</text>
<text text-anchor="start" x="160" y="-129.28" font-family="Roboto" font-weight="bold" font-size="8.00">BigAutoField</text>
<text text-anchor="start" x="212.5" y="-129.28" font-family="Roboto" font-size="8.00"> &#160;&#160;&#160;&#160;&#160;</text>
<text text-anchor="start" x="27" y="-116.28" font-family="Roboto" font-size="8.00"> &#160;&#160;&#160;&#160;&#160;</text>
<text text-anchor="start" x="40.5" y="-116.28" font-family="Roboto" font-weight="bold" font-size="8.00" fill="#7b7b7b">Associated Pay Period</text>
<text text-anchor="start" x="129" y="-116.28" font-family="Roboto" font-size="8.00"> &#160;&#160;&#160;&#160;&#160;</text>
<text text-anchor="start" x="146.5" y="-116.28" font-family="Roboto" font-size="8.00"> &#160;&#160;&#160;&#160;&#160;</text>
<text text-anchor="start" x="160" y="-116.28" font-family="Roboto" font-weight="bold" font-size="8.00" fill="#7b7b7b">ForeignKey (id)</text>
<text text-anchor="start" x="221.5" y="-116.28" font-family="Roboto" font-size="8.00"> &#160;&#160;&#160;&#160;&#160;</text>
<text text-anchor="start" x="27" y="-103.28" font-family="Roboto" font-size="8.00"> &#160;&#160;&#160;&#160;&#160;</text>
<text text-anchor="start" x="40.5" y="-103.28" font-family="Roboto" font-weight="bold" font-size="8.00">Employee</text>
<text text-anchor="start" x="78.75" y="-103.28" font-family="Roboto" font-size="8.00"> &#160;&#160;&#160;&#160;&#160;</text>
<text text-anchor="start" x="146.5" y="-103.28" font-family="Roboto" font-size="8.00"> &#160;&#160;&#160;&#160;&#160;</text>
<text text-anchor="start" x="160" y="-103.28" font-family="Roboto" font-weight="bold" font-size="8.00">ForeignKey (id)</text>
<text text-anchor="start" x="221.5" y="-103.28" font-family="Roboto" font-size="8.00"> &#160;&#160;&#160;&#160;&#160;</text>
<text text-anchor="start" x="27" y="-90.28" font-family="Roboto" font-size="8.00"> &#160;&#160;&#160;&#160;&#160;</text>
<text text-anchor="start" x="40.5" y="-90.28" font-family="Roboto" font-size="8.00">Clock In Time</text>
<text text-anchor="start" x="88.5" y="-90.28" font-family="Roboto" font-size="8.00"> &#160;&#160;&#160;&#160;&#160;</text>
<text text-anchor="start" x="146.5" y="-90.28" font-family="Roboto" font-size="8.00"> &#160;&#160;&#160;&#160;&#160;</text>
<text text-anchor="start" x="160" y="-90.28" font-family="Roboto" font-size="8.00">DateTimeField</text>
<text text-anchor="start" x="211.75" y="-90.28" font-family="Roboto" font-size="8.00"> &#160;&#160;&#160;&#160;&#160;</text>
<text text-anchor="start" x="27" y="-77.28" font-family="Roboto" font-size="8.00"> &#160;&#160;&#160;&#160;&#160;</text>
<text text-anchor="start" x="40.5" y="-77.28" font-family="Roboto" font-size="8.00" fill="#7b7b7b">Clock Out Time</text>
<text text-anchor="start" x="94.5" y="-77.28" font-family="Roboto" font-size="8.00"> &#160;&#160;&#160;&#160;&#160;</text>
<text text-anchor="start" x="146.5" y="-77.28" font-family="Roboto" font-size="8.00"> &#160;&#160;&#160;&#160;&#160;</text>
<text text-anchor="start" x="160" y="-77.28" font-family="Roboto" font-size="8.00" fill="#7b7b7b">DateTimeField</text>
<text text-anchor="start" x="211.75" y="-77.28" font-family="Roboto" font-size="8.00"> &#160;&#160;&#160;&#160;&#160;</text>
<text text-anchor="start" x="27" y="-64.28" font-family="Roboto" font-size="8.00"> &#160;&#160;&#160;&#160;&#160;</text>
<text text-anchor="start" x="40.5" y="-64.28" font-family="Roboto" font-size="8.00" fill="#7b7b7b">Created At</text>
<text text-anchor="start" x="79.5" y="-64.28" font-family="Roboto" font-size="8.00"> &#160;&#160;&#160;&#160;&#160;</text>
<text text-anchor="start" x="146.5" y="-64.28" font-family="Roboto" font-size="8.00"> &#160;&#160;&#160;&#160;&#160;</text>
<text text-anchor="start" x="160" y="-64.28" font-family="Roboto" font-size="8.00" fill="#7b7b7b">DateTimeField</text>
<text text-anchor="start" x="211.75" y="-64.28" font-family="Roboto" font-size="8.00"> &#160;&#160;&#160;&#160;&#160;</text>
<text text-anchor="start" x="27" y="-51.27" font-family="Roboto" font-size="8.00"> &#160;&#160;&#160;&#160;&#160;</text>
<text text-anchor="start" x="40.5" y="-51.27" font-family="Roboto" font-size="8.00" fill="#7b7b7b">Hours Worked</text>
<text text-anchor="start" x="92.25" y="-51.27" font-family="Roboto" font-size="8.00"> &#160;&#160;&#160;&#160;&#160;</text>
<text text-anchor="start" x="146.5" y="-51.27" font-family="Roboto" font-size="8.00"> &#160;&#160;&#160;&#160;&#160;</text>
<text text-anchor="start" x="160" y="-51.27" font-family="Roboto" font-size="8.00" fill="#7b7b7b">DecimalField</text>
<text text-anchor="start" x="205.75" y="-51.27" font-family="Roboto" font-size="8.00"> &#160;&#160;&#160;&#160;&#160;</text>
<text text-anchor="start" x="27" y="-38.27" font-family="Roboto" font-size="8.00"> &#160;&#160;&#160;&#160;&#160;</text>
<text text-anchor="start" x="40.5" y="-38.27" font-family="Roboto" font-size="8.00">Is Holiday</text>
<text text-anchor="start" x="75" y="-38.27" font-family="Roboto" font-size="8.00"> &#160;&#160;&#160;&#160;&#160;</text>
<text text-anchor="start" x="146.5" y="-38.27" font-family="Roboto" font-size="8.00"> &#160;&#160;&#160;&#160;&#160;</text>
<text text-anchor="start" x="160" y="-38.27" font-family="Roboto" font-size="8.00">BooleanField</text>
<text text-anchor="start" x="206.5" y="-38.27" font-family="Roboto" font-size="8.00"> &#160;&#160;&#160;&#160;&#160;</text>
<text text-anchor="start" x="27" y="-25.27" font-family="Roboto" font-size="8.00"> &#160;&#160;&#160;&#160;&#160;</text>
<text text-anchor="start" x="40.5" y="-25.27" font-family="Roboto" font-size="8.00" fill="#7b7b7b">Updated At</text>
<text text-anchor="start" x="81" y="-25.27" font-family="Roboto" font-size="8.00"> &#160;&#160;&#160;&#160;&#160;</text>
<text text-anchor="start" x="146.5" y="-25.27" font-family="Roboto" font-size="8.00"> &#160;&#160;&#160;&#160;&#160;</text>
<text text-anchor="start" x="160" y="-25.27" font-family="Roboto" font-size="8.00" fill="#7b7b7b">DateTimeField</text>
<text text-anchor="start" x="211.75" y="-25.27" font-family="Roboto" font-size="8.00"> &#160;&#160;&#160;&#160;&#160;</text>
<polygon fill="none" stroke="black" points="24,-19.88 24,-160.12 238,-160.12 238,-19.88 24,-19.88"/>
</g>
<!-- django_contrib_auth_models_User -->
<g id="node2" class="node">
<title>django_contrib_auth_models_User</title>
<polygon fill="white" stroke="none" points="418.62,-106.62 418.62,-127.38 461.12,-127.38 461.12,-106.62 418.62,-106.62"/>
<polygon fill="#1b563f" stroke="none" points="418.62,-106.62 418.62,-127.38 461.12,-127.38 461.12,-106.62 418.62,-106.62"/>
<text text-anchor="start" x="422.62" y="-112.97" font-family="Roboto" font-size="8.00"> &#160;</text>
<text text-anchor="start" x="427.12" y="-112.97" font-family="Roboto" font-size="12.00" fill="white">User</text>
<text text-anchor="start" x="452.62" y="-112.97" font-family="Roboto" font-size="8.00"> &#160;</text>
</g>
<!-- timeclock_models_Clock&#45;&gt;django_contrib_auth_models_User -->
<g id="edge1" class="edge">
<title>timeclock_models_Clock&#45;&gt;django_contrib_auth_models_User</title>
<path fill="none" stroke="black" d="M254.61,-100.79C311.94,-105.83 375.25,-111.4 410.74,-114.52"/>
<ellipse fill="black" stroke="black" cx="250.32" cy="-100.41" rx="4" ry="4"/>
<text text-anchor="middle" x="320.62" y="-112.57" font-family="Roboto" font-size="8.00"> Employee (Clocks)</text>
</g>
<!-- payperiod_models_PayPeriod -->
<g id="node3" class="node">
<title>payperiod_models_PayPeriod</title>
<polygon fill="white" stroke="none" points="403.25,-52.62 403.25,-73.38 476.5,-73.38 476.5,-52.62 403.25,-52.62"/>
<polygon fill="#1b563f" stroke="none" points="403.25,-52.62 403.25,-73.38 476.5,-73.38 476.5,-52.62 403.25,-52.62"/>
<text text-anchor="start" x="407.25" y="-58.98" font-family="Roboto" font-size="8.00"> &#160;</text>
<text text-anchor="start" x="411.75" y="-58.98" font-family="Roboto" font-size="12.00" fill="white">PayPeriod</text>
<text text-anchor="start" x="468" y="-58.98" font-family="Roboto" font-size="8.00"> &#160;</text>
</g>
<!-- timeclock_models_Clock&#45;&gt;payperiod_models_PayPeriod -->
<g id="edge2" class="edge">
<title>timeclock_models_Clock&#45;&gt;payperiod_models_PayPeriod</title>
<path fill="none" stroke="black" d="M254.76,-79.2C304.62,-74.81 358.99,-70.03 395.62,-66.81"/>
<ellipse fill="black" stroke="black" cx="250.32" cy="-79.59" rx="4" ry="4"/>
<text text-anchor="middle" x="320.62" y="-79.52" font-family="Roboto" font-size="8.00"> Associated Pay Period (Clocks)</text>
</g>
<!-- \n\n\n -->
<g id="node4" class="node">
<title>\n\n\n</title>
</g>
</g>
</svg>
