<?xml version="1.0" encoding="UTF-8" standalone="no"?>
<!DOCTYPE svg PUBLIC "-//W3C//DTD SVG 1.1//EN"
 "http://www.w3.org/Graphics/SVG/1.1/DTD/svg11.dtd">
<!-- Generated by graphviz version 12.2.1 (20241206.2353)
 -->
<!-- Title: model_graph Pages: 1 -->
<svg width="1005pt" height="396pt"
 viewBox="0.00 0.00 1005.25 396.00" xmlns="http://www.w3.org/2000/svg" xmlns:xlink="http://www.w3.org/1999/xlink">
<g id="graph0" class="graph" transform="scale(1 1) rotate(0) translate(4 392)">
<title>model_graph</title>
<polygon fill="white" stroke="none" points="-4,4 -4,-392 1001.25,-392 1001.25,4 -4,4"/>
<g id="clust1" class="cluster">
<title>cluster_timeoffreq</title>
<path fill="none" stroke="#698b22" d="M20,-8C20,-8 225.5,-8 225.5,-8 231.5,-8 237.5,-14 237.5,-20 237.5,-20 237.5,-253 237.5,-253 237.5,-259 231.5,-265 225.5,-265 225.5,-265 20,-265 20,-265 14,-265 8,-259 8,-253 8,-253 8,-20 8,-20 8,-14 14,-8 20,-8"/>
<text text-anchor="start" x="46.62" y="-248.5" font-family="Roboto" font-size="8.00"> &#160;&#160;&#160;&#160;&#160;&#160;&#160;&#160;&#160;</text>
<text text-anchor="start" x="69.12" y="-248.5" font-family="Roboto" font-size="10.00"> &#160;&#160;&#160;&#160;&#160;&#160;&#160;&#160;&#160;</text>
<text text-anchor="start" x="99.12" y="-248.5" font-family="Roboto" font-weight="bold" font-size="10.00">timeoffreq</text>
<text text-anchor="start" x="146.38" y="-248.5" font-family="Roboto" font-size="10.00"> &#160;&#160;&#160;&#160;&#160;&#160;&#160;&#160;&#160;</text>
<text text-anchor="start" x="176.38" y="-248.5" font-family="Roboto" font-size="8.00"> &#160;&#160;&#160;&#160;&#160;&#160;&#160;&#160;&#160;</text>
</g>
<g id="clust2" class="cluster">
<title>cluster_leavetype</title>
<path fill="none" stroke="#698b22" d="M429.62,-241C429.62,-241 977.25,-241 977.25,-241 983.25,-241 989.25,-247 989.25,-253 989.25,-253 989.25,-368 989.25,-368 989.25,-374 983.25,-380 977.25,-380 977.25,-380 429.62,-380 429.62,-380 423.62,-380 417.62,-374 417.62,-368 417.62,-368 417.62,-253 417.62,-253 417.62,-247 423.62,-241 429.62,-241"/>
<text text-anchor="start" x="629.19" y="-363.5" font-family="Roboto" font-size="8.00"> &#160;&#160;&#160;&#160;&#160;&#160;&#160;&#160;&#160;</text>
<text text-anchor="start" x="651.69" y="-363.5" font-family="Roboto" font-size="10.00"> &#160;&#160;&#160;&#160;&#160;&#160;&#160;&#160;&#160;</text>
<text text-anchor="start" x="681.69" y="-363.5" font-family="Roboto" font-weight="bold" font-size="10.00">leavetype</text>
<text text-anchor="start" x="725.19" y="-363.5" font-family="Roboto" font-size="10.00"> &#160;&#160;&#160;&#160;&#160;&#160;&#160;&#160;&#160;</text>
<text text-anchor="start" x="755.19" y="-363.5" font-family="Roboto" font-size="8.00"> &#160;&#160;&#160;&#160;&#160;&#160;&#160;&#160;&#160;</text>
</g>
<g id="clust3" class="cluster">
<title>cluster_payperiod</title>
<path fill="none" stroke="#698b22" d="M421,-94C421,-94 617.5,-94 617.5,-94 623.5,-94 629.5,-100 629.5,-106 629.5,-106 629.5,-221 629.5,-221 629.5,-227 623.5,-233 617.5,-233 617.5,-233 421,-233 421,-233 415,-233 409,-227 409,-221 409,-221 409,-106 409,-106 409,-100 415,-94 421,-94"/>
<text text-anchor="start" x="443.5" y="-216.5" font-family="Roboto" font-size="8.00"> &#160;&#160;&#160;&#160;&#160;&#160;&#160;&#160;&#160;</text>
<text text-anchor="start" x="466" y="-216.5" font-family="Roboto" font-size="10.00"> &#160;&#160;&#160;&#160;&#160;&#160;&#160;&#160;&#160;</text>
<text text-anchor="start" x="496" y="-216.5" font-family="Roboto" font-weight="bold" font-size="10.00">payperiod</text>
<text text-anchor="start" x="542.5" y="-216.5" font-family="Roboto" font-size="10.00"> &#160;&#160;&#160;&#160;&#160;&#160;&#160;&#160;&#160;</text>
<text text-anchor="start" x="572.5" y="-216.5" font-family="Roboto" font-size="8.00"> &#160;&#160;&#160;&#160;&#160;&#160;&#160;&#160;&#160;</text>
</g>
<!-- timeoffreq_models_TimeoffRequest -->
<g id="node1" class="node">
<title>timeoffreq_models_TimeoffRequest</title>
<polygon fill="white" stroke="none" points="24,-20.38 24,-225.62 221.5,-225.62 221.5,-20.38 24,-20.38"/>
<polygon fill="#1b563f" stroke="none" points="25,-203.38 25,-224.62 220.5,-224.62 220.5,-203.38 25,-203.38"/>
<text text-anchor="start" x="57.5" y="-211.12" font-family="Roboto" font-size="8.00"> &#160;&#160;&#160;&#160;&#160;</text>
<text text-anchor="start" x="71" y="-211.12" font-family="Roboto" font-weight="bold" font-size="10.00" fill="white"> &#160;&#160;&#160;&#160;&#160;Time Off Request &#160;&#160;&#160;&#160;&#160;</text>
<text text-anchor="start" x="27" y="-194.78" font-family="Roboto" font-size="8.00"> &#160;&#160;&#160;&#160;&#160;</text>
<text text-anchor="start" x="40.5" y="-194.78" font-family="Roboto" font-weight="bold" font-size="8.00">ID</text>
<text text-anchor="start" x="48.75" y="-194.78" font-family="Roboto" font-size="8.00"> &#160;&#160;&#160;&#160;&#160;</text>
<text text-anchor="start" x="130" y="-194.78" font-family="Roboto" font-size="8.00"> &#160;&#160;&#160;&#160;&#160;</text>
<text text-anchor="start" x="143.5" y="-194.78" font-family="Roboto" font-weight="bold" font-size="8.00">BigAutoField</text>
<text text-anchor="start" x="196" y="-194.78" font-family="Roboto" font-size="8.00"> &#160;&#160;&#160;&#160;&#160;</text>
<text text-anchor="start" x="27" y="-181.78" font-family="Roboto" font-size="8.00"> &#160;&#160;&#160;&#160;&#160;</text>
<text text-anchor="start" x="40.5" y="-181.78" font-family="Roboto" font-weight="bold" font-size="8.00">Employee</text>
<text text-anchor="start" x="78.75" y="-181.78" font-family="Roboto" font-size="8.00"> &#160;&#160;&#160;&#160;&#160;</text>
<text text-anchor="start" x="130" y="-181.78" font-family="Roboto" font-size="8.00"> &#160;&#160;&#160;&#160;&#160;</text>
<text text-anchor="start" x="143.5" y="-181.78" font-family="Roboto" font-weight="bold" font-size="8.00">ForeignKey (id)</text>
<text text-anchor="start" x="205" y="-181.78" font-family="Roboto" font-size="8.00"> &#160;&#160;&#160;&#160;&#160;</text>
<text text-anchor="start" x="27" y="-168.78" font-family="Roboto" font-size="8.00"> &#160;&#160;&#160;&#160;&#160;</text>
<text text-anchor="start" x="40.5" y="-168.78" font-family="Roboto" font-weight="bold" font-size="8.00">Leave Type</text>
<text text-anchor="start" x="84.75" y="-168.78" font-family="Roboto" font-size="8.00"> &#160;&#160;&#160;&#160;&#160;</text>
<text text-anchor="start" x="130" y="-168.78" font-family="Roboto" font-size="8.00"> &#160;&#160;&#160;&#160;&#160;</text>
<text text-anchor="start" x="143.5" y="-168.78" font-family="Roboto" font-weight="bold" font-size="8.00">ForeignKey (id)</text>
<text text-anchor="start" x="205" y="-168.78" font-family="Roboto" font-size="8.00"> &#160;&#160;&#160;&#160;&#160;</text>
<text text-anchor="start" x="27" y="-155.78" font-family="Roboto" font-size="8.00"> &#160;&#160;&#160;&#160;&#160;</text>
<text text-anchor="start" x="40.5" y="-155.78" font-family="Roboto" font-weight="bold" font-size="8.00" fill="#7b7b7b">Pay Period</text>
<text text-anchor="start" x="82.5" y="-155.78" font-family="Roboto" font-size="8.00"> &#160;&#160;&#160;&#160;&#160;</text>
<text text-anchor="start" x="130" y="-155.78" font-family="Roboto" font-size="8.00"> &#160;&#160;&#160;&#160;&#160;</text>
<text text-anchor="start" x="143.5" y="-155.78" font-family="Roboto" font-weight="bold" font-size="8.00" fill="#7b7b7b">ForeignKey (id)</text>
<text text-anchor="start" x="205" y="-155.78" font-family="Roboto" font-size="8.00"> &#160;&#160;&#160;&#160;&#160;</text>
<text text-anchor="start" x="27" y="-142.78" font-family="Roboto" font-size="8.00"> &#160;&#160;&#160;&#160;&#160;</text>
<text text-anchor="start" x="40.5" y="-142.78" font-family="Roboto" font-weight="bold" font-size="8.00" fill="#7b7b7b">Reviewed By</text>
<text text-anchor="start" x="90.75" y="-142.78" font-family="Roboto" font-size="8.00"> &#160;&#160;&#160;&#160;&#160;</text>
<text text-anchor="start" x="130" y="-142.78" font-family="Roboto" font-size="8.00"> &#160;&#160;&#160;&#160;&#160;</text>
<text text-anchor="start" x="143.5" y="-142.78" font-family="Roboto" font-weight="bold" font-size="8.00" fill="#7b7b7b">ForeignKey (id)</text>
<text text-anchor="start" x="205" y="-142.78" font-family="Roboto" font-size="8.00"> &#160;&#160;&#160;&#160;&#160;</text>
<text text-anchor="start" x="27" y="-129.78" font-family="Roboto" font-size="8.00"> &#160;&#160;&#160;&#160;&#160;</text>
<text text-anchor="start" x="40.5" y="-129.78" font-family="Roboto" font-size="8.00" fill="#7b7b7b">Created At</text>
<text text-anchor="start" x="79.5" y="-129.78" font-family="Roboto" font-size="8.00"> &#160;&#160;&#160;&#160;&#160;</text>
<text text-anchor="start" x="130" y="-129.78" font-family="Roboto" font-size="8.00"> &#160;&#160;&#160;&#160;&#160;</text>
<text text-anchor="start" x="143.5" y="-129.78" font-family="Roboto" font-size="8.00" fill="#7b7b7b">DateTimeField</text>
<text text-anchor="start" x="195.25" y="-129.78" font-family="Roboto" font-size="8.00"> &#160;&#160;&#160;&#160;&#160;</text>
<text text-anchor="start" x="27" y="-116.78" font-family="Roboto" font-size="8.00"> &#160;&#160;&#160;&#160;&#160;</text>
<text text-anchor="start" x="40.5" y="-116.78" font-family="Roboto" font-size="8.00" fill="#7b7b7b">Document Proof</text>
<text text-anchor="start" x="99" y="-116.78" font-family="Roboto" font-size="8.00"> &#160;&#160;&#160;&#160;&#160;</text>
<text text-anchor="start" x="130" y="-116.78" font-family="Roboto" font-size="8.00"> &#160;&#160;&#160;&#160;&#160;</text>
<text text-anchor="start" x="143.5" y="-116.78" font-family="Roboto" font-size="8.00" fill="#7b7b7b">FileField</text>
<text text-anchor="start" x="173.5" y="-116.78" font-family="Roboto" font-size="8.00"> &#160;&#160;&#160;&#160;&#160;</text>
<text text-anchor="start" x="27" y="-103.78" font-family="Roboto" font-size="8.00"> &#160;&#160;&#160;&#160;&#160;</text>
<text text-anchor="start" x="40.5" y="-103.78" font-family="Roboto" font-size="8.00">End Date and Time</text>
<text text-anchor="start" x="109.5" y="-103.78" font-family="Roboto" font-size="8.00"> &#160;&#160;&#160;&#160;&#160;</text>
<text text-anchor="start" x="130" y="-103.78" font-family="Roboto" font-size="8.00"> &#160;&#160;&#160;&#160;&#160;</text>
<text text-anchor="start" x="143.5" y="-103.78" font-family="Roboto" font-size="8.00">DateTimeField</text>
<text text-anchor="start" x="195.25" y="-103.78" font-family="Roboto" font-size="8.00"> &#160;&#160;&#160;&#160;&#160;</text>
<text text-anchor="start" x="27" y="-90.78" font-family="Roboto" font-size="8.00"> &#160;&#160;&#160;&#160;&#160;</text>
<text text-anchor="start" x="40.5" y="-90.78" font-family="Roboto" font-size="8.00">Leave Reason</text>
<text text-anchor="start" x="92.25" y="-90.78" font-family="Roboto" font-size="8.00"> &#160;&#160;&#160;&#160;&#160;</text>
<text text-anchor="start" x="130" y="-90.78" font-family="Roboto" font-size="8.00"> &#160;&#160;&#160;&#160;&#160;</text>
<text text-anchor="start" x="143.5" y="-90.78" font-family="Roboto" font-size="8.00">CharField</text>
<text text-anchor="start" x="178.75" y="-90.78" font-family="Roboto" font-size="8.00"> &#160;&#160;&#160;&#160;&#160;</text>
<text text-anchor="start" x="27" y="-77.78" font-family="Roboto" font-size="8.00"> &#160;&#160;&#160;&#160;&#160;</text>
<text text-anchor="start" x="40.5" y="-77.78" font-family="Roboto" font-size="8.00" fill="#7b7b7b">Reviewed At</text>
<text text-anchor="start" x="85.5" y="-77.78" font-family="Roboto" font-size="8.00"> &#160;&#160;&#160;&#160;&#160;</text>
<text text-anchor="start" x="130" y="-77.78" font-family="Roboto" font-size="8.00"> &#160;&#160;&#160;&#160;&#160;</text>
<text text-anchor="start" x="143.5" y="-77.78" font-family="Roboto" font-size="8.00" fill="#7b7b7b">DateTimeField</text>
<text text-anchor="start" x="195.25" y="-77.78" font-family="Roboto" font-size="8.00"> &#160;&#160;&#160;&#160;&#160;</text>
<text text-anchor="start" x="27" y="-64.78" font-family="Roboto" font-size="8.00"> &#160;&#160;&#160;&#160;&#160;</text>
<text text-anchor="start" x="40.5" y="-64.78" font-family="Roboto" font-size="8.00">Start Date and Time</text>
<text text-anchor="start" x="112.5" y="-64.78" font-family="Roboto" font-size="8.00"> &#160;&#160;&#160;&#160;&#160;</text>
<text text-anchor="start" x="130" y="-64.78" font-family="Roboto" font-size="8.00"> &#160;&#160;&#160;&#160;&#160;</text>
<text text-anchor="start" x="143.5" y="-64.78" font-family="Roboto" font-size="8.00">DateTimeField</text>
<text text-anchor="start" x="195.25" y="-64.78" font-family="Roboto" font-size="8.00"> &#160;&#160;&#160;&#160;&#160;</text>
<text text-anchor="start" x="27" y="-51.77" font-family="Roboto" font-size="8.00"> &#160;&#160;&#160;&#160;&#160;</text>
<text text-anchor="start" x="40.5" y="-51.77" font-family="Roboto" font-size="8.00">Time Off Duration</text>
<text text-anchor="start" x="103.5" y="-51.77" font-family="Roboto" font-size="8.00"> &#160;&#160;&#160;&#160;&#160;</text>
<text text-anchor="start" x="130" y="-51.77" font-family="Roboto" font-size="8.00"> &#160;&#160;&#160;&#160;&#160;</text>
<text text-anchor="start" x="143.5" y="-51.77" font-family="Roboto" font-size="8.00">DecimalField</text>
<text text-anchor="start" x="189.25" y="-51.77" font-family="Roboto" font-size="8.00"> &#160;&#160;&#160;&#160;&#160;</text>
<text text-anchor="start" x="27" y="-38.77" font-family="Roboto" font-size="8.00"> &#160;&#160;&#160;&#160;&#160;</text>
<text text-anchor="start" x="40.5" y="-38.77" font-family="Roboto" font-size="8.00">Time off Status</text>
<text text-anchor="start" x="93.75" y="-38.77" font-family="Roboto" font-size="8.00"> &#160;&#160;&#160;&#160;&#160;</text>
<text text-anchor="start" x="130" y="-38.77" font-family="Roboto" font-size="8.00"> &#160;&#160;&#160;&#160;&#160;</text>
<text text-anchor="start" x="143.5" y="-38.77" font-family="Roboto" font-size="8.00">CharField</text>
<text text-anchor="start" x="178.75" y="-38.77" font-family="Roboto" font-size="8.00"> &#160;&#160;&#160;&#160;&#160;</text>
<text text-anchor="start" x="27" y="-25.77" font-family="Roboto" font-size="8.00"> &#160;&#160;&#160;&#160;&#160;</text>
<text text-anchor="start" x="40.5" y="-25.77" font-family="Roboto" font-size="8.00" fill="#7b7b7b">Updated At</text>
<text text-anchor="start" x="81" y="-25.77" font-family="Roboto" font-size="8.00"> &#160;&#160;&#160;&#160;&#160;</text>
<text text-anchor="start" x="130" y="-25.77" font-family="Roboto" font-size="8.00"> &#160;&#160;&#160;&#160;&#160;</text>
<text text-anchor="start" x="143.5" y="-25.77" font-family="Roboto" font-size="8.00" fill="#7b7b7b">DateTimeField</text>
<text text-anchor="start" x="195.25" y="-25.77" font-family="Roboto" font-size="8.00"> &#160;&#160;&#160;&#160;&#160;</text>
<polygon fill="none" stroke="black" points="24,-20.38 24,-225.62 221.5,-225.62 221.5,-20.38 24,-20.38"/>
</g>
<!-- leavetype_models_DepartmentBasedLeaveType -->
<g id="node3" class="node">
<title>leavetype_models_DepartmentBasedLeaveType</title>
<polygon fill="white" stroke="none" points="433.62,-252.88 433.62,-341.12 604.88,-341.12 604.88,-252.88 433.62,-252.88"/>
<polygon fill="#1b563f" stroke="none" points="434.62,-318.88 434.62,-340.12 603.88,-340.12 603.88,-318.88 434.62,-318.88"/>
<text text-anchor="start" x="439.75" y="-326.62" font-family="Roboto" font-size="8.00"> &#160;&#160;&#160;&#160;&#160;</text>
<text text-anchor="start" x="453.25" y="-326.62" font-family="Roboto" font-weight="bold" font-size="10.00" fill="white"> &#160;&#160;&#160;&#160;&#160;Department Leave Type &#160;&#160;&#160;&#160;&#160;</text>
<text text-anchor="start" x="436.62" y="-310.27" font-family="Roboto" font-size="8.00"> &#160;&#160;&#160;&#160;&#160;</text>
<text text-anchor="start" x="450.12" y="-310.27" font-family="Roboto" font-weight="bold" font-size="8.00">ID</text>
<text text-anchor="start" x="458.38" y="-310.27" font-family="Roboto" font-size="8.00"> &#160;&#160;&#160;&#160;&#160;</text>
<text text-anchor="start" x="513.38" y="-310.27" font-family="Roboto" font-size="8.00"> &#160;&#160;&#160;&#160;&#160;</text>
<text text-anchor="start" x="526.88" y="-310.27" font-family="Roboto" font-weight="bold" font-size="8.00">BigAutoField</text>
<text text-anchor="start" x="579.38" y="-310.27" font-family="Roboto" font-size="8.00"> &#160;&#160;&#160;&#160;&#160;</text>
<text text-anchor="start" x="436.62" y="-297.27" font-family="Roboto" font-size="8.00"> &#160;&#160;&#160;&#160;&#160;</text>
<text text-anchor="start" x="450.12" y="-297.27" font-family="Roboto" font-weight="bold" font-size="8.00">Department</text>
<text text-anchor="start" x="495.88" y="-297.27" font-family="Roboto" font-size="8.00"> &#160;&#160;&#160;&#160;&#160;</text>
<text text-anchor="start" x="513.38" y="-297.27" font-family="Roboto" font-size="8.00"> &#160;&#160;&#160;&#160;&#160;</text>
<text text-anchor="start" x="526.88" y="-297.27" font-family="Roboto" font-weight="bold" font-size="8.00">ForeignKey (id)</text>
<text text-anchor="start" x="588.38" y="-297.27" font-family="Roboto" font-size="8.00"> &#160;&#160;&#160;&#160;&#160;</text>
<text text-anchor="start" x="436.62" y="-284.27" font-family="Roboto" font-size="8.00"> &#160;&#160;&#160;&#160;&#160;</text>
<text text-anchor="start" x="450.12" y="-284.27" font-family="Roboto" font-weight="bold" font-size="8.00">Leave type</text>
<text text-anchor="start" x="492.88" y="-284.27" font-family="Roboto" font-size="8.00"> &#160;&#160;&#160;&#160;&#160;</text>
<text text-anchor="start" x="513.38" y="-284.27" font-family="Roboto" font-size="8.00"> &#160;&#160;&#160;&#160;&#160;</text>
<text text-anchor="start" x="526.88" y="-284.27" font-family="Roboto" font-weight="bold" font-size="8.00">ForeignKey (id)</text>
<text text-anchor="start" x="588.38" y="-284.27" font-family="Roboto" font-size="8.00"> &#160;&#160;&#160;&#160;&#160;</text>
<text text-anchor="start" x="436.62" y="-271.27" font-family="Roboto" font-size="8.00"> &#160;&#160;&#160;&#160;&#160;</text>
<text text-anchor="start" x="450.12" y="-271.27" font-family="Roboto" font-size="8.00" fill="#7b7b7b">Created at</text>
<text text-anchor="start" x="488.38" y="-271.27" font-family="Roboto" font-size="8.00"> &#160;&#160;&#160;&#160;&#160;</text>
<text text-anchor="start" x="513.38" y="-271.27" font-family="Roboto" font-size="8.00"> &#160;&#160;&#160;&#160;&#160;</text>
<text text-anchor="start" x="526.88" y="-271.27" font-family="Roboto" font-size="8.00" fill="#7b7b7b">DateTimeField</text>
<text text-anchor="start" x="578.62" y="-271.27" font-family="Roboto" font-size="8.00"> &#160;&#160;&#160;&#160;&#160;</text>
<text text-anchor="start" x="436.62" y="-258.27" font-family="Roboto" font-size="8.00"> &#160;&#160;&#160;&#160;&#160;</text>
<text text-anchor="start" x="450.12" y="-258.27" font-family="Roboto" font-size="8.00" fill="#7b7b7b">Updated at</text>
<text text-anchor="start" x="489.88" y="-258.27" font-family="Roboto" font-size="8.00"> &#160;&#160;&#160;&#160;&#160;</text>
<text text-anchor="start" x="513.38" y="-258.27" font-family="Roboto" font-size="8.00"> &#160;&#160;&#160;&#160;&#160;</text>
<text text-anchor="start" x="526.88" y="-258.27" font-family="Roboto" font-size="8.00" fill="#7b7b7b">DateTimeField</text>
<text text-anchor="start" x="578.62" y="-258.27" font-family="Roboto" font-size="8.00"> &#160;&#160;&#160;&#160;&#160;</text>
<polygon fill="none" stroke="black" points="433.62,-252.88 433.62,-341.12 604.88,-341.12 604.88,-252.88 433.62,-252.88"/>
</g>
<!-- timeoffreq_models_TimeoffRequest&#45;&gt;leavetype_models_DepartmentBasedLeaveType -->
<g id="edge2" class="edge">
<title>timeoffreq_models_TimeoffRequest&#45;&gt;leavetype_models_DepartmentBasedLeaveType</title>
<path fill="none" stroke="black" d="M237.43,-173.14C297.16,-199.48 369.42,-231.35 425.68,-256.17"/>
<ellipse fill="black" stroke="black" cx="233.59" cy="-171.44" rx="4" ry="4"/>
<text text-anchor="middle" x="323.25" y="-242.12" font-family="Roboto" font-size="8.00"> Leave Type (Timeoff requests)</text>
</g>
<!-- payperiod_models_PayPeriod -->
<g id="node4" class="node">
<title>payperiod_models_PayPeriod</title>
<polygon fill="white" stroke="none" points="425,-105.88 425,-194.12 613.5,-194.12 613.5,-105.88 425,-105.88"/>
<polygon fill="#1b563f" stroke="none" points="426,-171.88 426,-193.12 612.5,-193.12 612.5,-171.88 426,-171.88"/>
<text text-anchor="start" x="469" y="-179.62" font-family="Roboto" font-size="8.00"> &#160;&#160;&#160;&#160;&#160;</text>
<text text-anchor="start" x="482.5" y="-179.62" font-family="Roboto" font-weight="bold" font-size="10.00" fill="white"> &#160;&#160;&#160;&#160;&#160;Pay Period &#160;&#160;&#160;&#160;&#160;</text>
<text text-anchor="start" x="428" y="-163.28" font-family="Roboto" font-size="8.00"> &#160;&#160;&#160;&#160;&#160;</text>
<text text-anchor="start" x="441.5" y="-163.28" font-family="Roboto" font-weight="bold" font-size="8.00">ID</text>
<text text-anchor="start" x="449.75" y="-163.28" font-family="Roboto" font-size="8.00"> &#160;&#160;&#160;&#160;&#160;</text>
<text text-anchor="start" x="531" y="-163.28" font-family="Roboto" font-size="8.00"> &#160;&#160;&#160;&#160;&#160;</text>
<text text-anchor="start" x="544.5" y="-163.28" font-family="Roboto" font-weight="bold" font-size="8.00">BigAutoField</text>
<text text-anchor="start" x="597" y="-163.28" font-family="Roboto" font-size="8.00"> &#160;&#160;&#160;&#160;&#160;</text>
<text text-anchor="start" x="428" y="-150.28" font-family="Roboto" font-size="8.00"> &#160;&#160;&#160;&#160;&#160;</text>
<text text-anchor="start" x="441.5" y="-150.28" font-family="Roboto" font-size="8.00" fill="#7b7b7b">Created At</text>
<text text-anchor="start" x="480.5" y="-150.28" font-family="Roboto" font-size="8.00"> &#160;&#160;&#160;&#160;&#160;</text>
<text text-anchor="start" x="531" y="-150.28" font-family="Roboto" font-size="8.00"> &#160;&#160;&#160;&#160;&#160;</text>
<text text-anchor="start" x="544.5" y="-150.28" font-family="Roboto" font-size="8.00" fill="#7b7b7b">DateTimeField</text>
<text text-anchor="start" x="596.25" y="-150.28" font-family="Roboto" font-size="8.00"> &#160;&#160;&#160;&#160;&#160;</text>
<text text-anchor="start" x="428" y="-137.28" font-family="Roboto" font-size="8.00"> &#160;&#160;&#160;&#160;&#160;</text>
<text text-anchor="start" x="441.5" y="-137.28" font-family="Roboto" font-size="8.00">End Date and Time</text>
<text text-anchor="start" x="510.5" y="-137.28" font-family="Roboto" font-size="8.00"> &#160;&#160;&#160;&#160;&#160;</text>
<text text-anchor="start" x="531" y="-137.28" font-family="Roboto" font-size="8.00"> &#160;&#160;&#160;&#160;&#160;</text>
<text text-anchor="start" x="544.5" y="-137.28" font-family="Roboto" font-size="8.00">DateTimeField</text>
<text text-anchor="start" x="596.25" y="-137.28" font-family="Roboto" font-size="8.00"> &#160;&#160;&#160;&#160;&#160;</text>
<text text-anchor="start" x="428" y="-124.28" font-family="Roboto" font-size="8.00"> &#160;&#160;&#160;&#160;&#160;</text>
<text text-anchor="start" x="441.5" y="-124.28" font-family="Roboto" font-size="8.00">Start Date and Time</text>
<text text-anchor="start" x="513.5" y="-124.28" font-family="Roboto" font-size="8.00"> &#160;&#160;&#160;&#160;&#160;</text>
<text text-anchor="start" x="531" y="-124.28" font-family="Roboto" font-size="8.00"> &#160;&#160;&#160;&#160;&#160;</text>
<text text-anchor="start" x="544.5" y="-124.28" font-family="Roboto" font-size="8.00">DateTimeField</text>
<text text-anchor="start" x="596.25" y="-124.28" font-family="Roboto" font-size="8.00"> &#160;&#160;&#160;&#160;&#160;</text>
<text text-anchor="start" x="428" y="-111.28" font-family="Roboto" font-size="8.00"> &#160;&#160;&#160;&#160;&#160;</text>
<text text-anchor="start" x="441.5" y="-111.28" font-family="Roboto" font-size="8.00" fill="#7b7b7b">Updated At</text>
<text text-anchor="start" x="482" y="-111.28" font-family="Roboto" font-size="8.00"> &#160;&#160;&#160;&#160;&#160;</text>
<text text-anchor="start" x="531" y="-111.28" font-family="Roboto" font-size="8.00"> &#160;&#160;&#160;&#160;&#160;</text>
<text text-anchor="start" x="544.5" y="-111.28" font-family="Roboto" font-size="8.00" fill="#7b7b7b">DateTimeField</text>
<text text-anchor="start" x="596.25" y="-111.28" font-family="Roboto" font-size="8.00"> &#160;&#160;&#160;&#160;&#160;</text>
<polygon fill="none" stroke="black" points="425,-105.88 425,-194.12 613.5,-194.12 613.5,-105.88 425,-105.88"/>
</g>
<!-- timeoffreq_models_TimeoffRequest&#45;&gt;payperiod_models_PayPeriod -->
<g id="edge3" class="edge">
<title>timeoffreq_models_TimeoffRequest&#45;&gt;payperiod_models_PayPeriod</title>
<path fill="none" stroke="black" d="M238.44,-130.85C294.93,-134.72 362.45,-139.34 417,-143.07"/>
<ellipse fill="black" stroke="black" cx="233.96" cy="-130.54" rx="4" ry="4"/>
<text text-anchor="middle" x="323.25" y="-142.67" font-family="Roboto" font-size="8.00"> Pay Period (Timeoff requests)</text>
</g>
<!-- django_contrib_auth_models_User -->
<g id="node5" class="node">
<title>django_contrib_auth_models_User</title>
<polygon fill="white" stroke="none" points="498,-55.62 498,-76.38 540.5,-76.38 540.5,-55.62 498,-55.62"/>
<polygon fill="#1b563f" stroke="none" points="498,-55.62 498,-76.38 540.5,-76.38 540.5,-55.62 498,-55.62"/>
<text text-anchor="start" x="502" y="-61.98" font-family="Roboto" font-size="8.00"> &#160;</text>
<text text-anchor="start" x="506.5" y="-61.98" font-family="Roboto" font-size="12.00" fill="white">User</text>
<text text-anchor="start" x="532" y="-61.98" font-family="Roboto" font-size="8.00"> &#160;</text>
</g>
<!-- timeoffreq_models_TimeoffRequest&#45;&gt;django_contrib_auth_models_User -->
<g id="edge1" class="edge">
<title>timeoffreq_models_TimeoffRequest&#45;&gt;django_contrib_auth_models_User</title>
<path fill="none" stroke="black" d="M238.34,-106.44C325.42,-93.86 438.74,-77.49 490.4,-70.02"/>
<ellipse fill="black" stroke="black" cx="233.92" cy="-107.08" rx="4" ry="4"/>
<text text-anchor="middle" x="323.25" y="-105.96" font-family="Roboto" font-size="8.00"> Employee (Timeoff requests)</text>
</g>
<!-- timeoffreq_models_TimeoffRequest&#45;&gt;django_contrib_auth_models_User -->
<g id="edge4" class="edge">
<title>timeoffreq_models_TimeoffRequest&#45;&gt;django_contrib_auth_models_User</title>
<path fill="none" stroke="black" d="M237.82,-73.27C241.06,-72.44 244.29,-71.68 247.5,-71 334.44,-52.64 440.58,-58.66 490.19,-63.08"/>
<ellipse fill="black" stroke="black" cx="233.57" cy="-74.44" rx="4" ry="4"/>
<text text-anchor="middle" x="323.25" y="-72.4" font-family="Roboto" font-size="8.00"> Reviewed By (Reviewed timeoff requests)</text>
</g>
<!-- leavetype_models_LeaveType -->
<g id="node2" class="node">
<title>leavetype_models_LeaveType</title>
<polygon fill="white" stroke="none" points="817,-259.38 817,-334.62 973.25,-334.62 973.25,-259.38 817,-259.38"/>
<polygon fill="#1b563f" stroke="none" points="818,-312.38 818,-333.62 972.25,-333.62 972.25,-312.38 818,-312.38"/>
<text text-anchor="start" x="847.12" y="-320.12" font-family="Roboto" font-size="8.00"> &#160;&#160;&#160;&#160;&#160;</text>
<text text-anchor="start" x="860.62" y="-320.12" font-family="Roboto" font-weight="bold" font-size="10.00" fill="white"> &#160;&#160;&#160;&#160;&#160;leave type &#160;&#160;&#160;&#160;&#160;</text>
<text text-anchor="start" x="820" y="-303.77" font-family="Roboto" font-size="8.00"> &#160;&#160;&#160;&#160;&#160;</text>
<text text-anchor="start" x="833.5" y="-303.77" font-family="Roboto" font-weight="bold" font-size="8.00">ID</text>
<text text-anchor="start" x="841.75" y="-303.77" font-family="Roboto" font-size="8.00"> &#160;&#160;&#160;&#160;&#160;</text>
<text text-anchor="start" x="890.75" y="-303.77" font-family="Roboto" font-size="8.00"> &#160;&#160;&#160;&#160;&#160;</text>
<text text-anchor="start" x="904.25" y="-303.77" font-family="Roboto" font-weight="bold" font-size="8.00">BigAutoField</text>
<text text-anchor="start" x="956.75" y="-303.77" font-family="Roboto" font-size="8.00"> &#160;&#160;&#160;&#160;&#160;</text>
<text text-anchor="start" x="820" y="-290.77" font-family="Roboto" font-size="8.00"> &#160;&#160;&#160;&#160;&#160;</text>
<text text-anchor="start" x="833.5" y="-290.77" font-family="Roboto" font-size="8.00" fill="#7b7b7b">Created at</text>
<text text-anchor="start" x="871.75" y="-290.77" font-family="Roboto" font-size="8.00"> &#160;&#160;&#160;&#160;&#160;</text>
<text text-anchor="start" x="890.75" y="-290.77" font-family="Roboto" font-size="8.00"> &#160;&#160;&#160;&#160;&#160;</text>
<text text-anchor="start" x="904.25" y="-290.77" font-family="Roboto" font-size="8.00" fill="#7b7b7b">DateTimeField</text>
<text text-anchor="start" x="956" y="-290.77" font-family="Roboto" font-size="8.00"> &#160;&#160;&#160;&#160;&#160;</text>
<text text-anchor="start" x="820" y="-277.77" font-family="Roboto" font-size="8.00"> &#160;&#160;&#160;&#160;&#160;</text>
<text text-anchor="start" x="833.5" y="-277.77" font-family="Roboto" font-size="8.00">Name</text>
<text text-anchor="start" x="855.25" y="-277.77" font-family="Roboto" font-size="8.00"> &#160;&#160;&#160;&#160;&#160;</text>
<text text-anchor="start" x="890.75" y="-277.77" font-family="Roboto" font-size="8.00"> &#160;&#160;&#160;&#160;&#160;</text>
<text text-anchor="start" x="904.25" y="-277.77" font-family="Roboto" font-size="8.00">CharField</text>
<text text-anchor="start" x="939.5" y="-277.77" font-family="Roboto" font-size="8.00"> &#160;&#160;&#160;&#160;&#160;</text>
<text text-anchor="start" x="820" y="-264.77" font-family="Roboto" font-size="8.00"> &#160;&#160;&#160;&#160;&#160;</text>
<text text-anchor="start" x="833.5" y="-264.77" font-family="Roboto" font-size="8.00" fill="#7b7b7b">Updated at</text>
<text text-anchor="start" x="873.25" y="-264.77" font-family="Roboto" font-size="8.00"> &#160;&#160;&#160;&#160;&#160;</text>
<text text-anchor="start" x="890.75" y="-264.77" font-family="Roboto" font-size="8.00"> &#160;&#160;&#160;&#160;&#160;</text>
<text text-anchor="start" x="904.25" y="-264.77" font-family="Roboto" font-size="8.00" fill="#7b7b7b">DateTimeField</text>
<text text-anchor="start" x="956" y="-264.77" font-family="Roboto" font-size="8.00"> &#160;&#160;&#160;&#160;&#160;</text>
<polygon fill="none" stroke="black" points="817,-259.38 817,-334.62 973.25,-334.62 973.25,-259.38 817,-259.38"/>
</g>
<!-- leavetype_models_DepartmentBasedLeaveType&#45;&gt;leavetype_models_LeaveType -->
<g id="edge6" class="edge">
<title>leavetype_models_DepartmentBasedLeaveType&#45;&gt;leavetype_models_LeaveType</title>
<path fill="none" stroke="black" d="M621.6,-297C680.34,-297 753.45,-297 809.16,-297"/>
<ellipse fill="black" stroke="black" cx="617.17" cy="-297" rx="4" ry="4"/>
<text text-anchor="middle" x="715.25" y="-298.4" font-family="Roboto" font-size="8.00"> Leave type (Departmentbasedleavetype)</text>
</g>
<!-- department_models_Department -->
<g id="node6" class="node">
<title>department_models_Department</title>
<polygon fill="white" stroke="none" points="855.5,-204.62 855.5,-225.38 934.75,-225.38 934.75,-204.62 855.5,-204.62"/>
<polygon fill="#1b563f" stroke="none" points="855.5,-204.62 855.5,-225.38 934.75,-225.38 934.75,-204.62 855.5,-204.62"/>
<text text-anchor="start" x="859.5" y="-210.97" font-family="Roboto" font-size="8.00"> &#160;</text>
<text text-anchor="start" x="864" y="-210.97" font-family="Roboto" font-size="12.00" fill="white">Department</text>
<text text-anchor="start" x="926.25" y="-210.97" font-family="Roboto" font-size="8.00"> &#160;</text>
</g>
<!-- leavetype_models_DepartmentBasedLeaveType&#45;&gt;department_models_Department -->
<g id="edge5" class="edge">
<title>leavetype_models_DepartmentBasedLeaveType&#45;&gt;department_models_Department</title>
<path fill="none" stroke="black" d="M621.08,-274.88C694.77,-258.72 791.3,-237.55 847.64,-225.2"/>
<ellipse fill="black" stroke="black" cx="617.06" cy="-275.77" rx="4" ry="4"/>
<text text-anchor="middle" x="715.25" y="-271.88" font-family="Roboto" font-size="8.00"> Department (Departmentbasedleavetype)</text>
</g>
<!-- \n\n\n\n -->
<g id="node7" class="node">
<title>\n\n\n\n</title>
</g>
</g>
</svg>
